M48
; DRILL file {KiCad 9.0.5} date 2025-12-04T20:43:38+0000
; FORMAT={-:-/ absolute / inch / decimal}
; #@! TF.CreationDate,2025-12-04T20:43:38+00:00
; #@! TF.GenerationSoftware,Kicad,Pcbnew,9.0.5
; #@! TF.FileFunction,Plated,1,2,PTH
FMAT,2
INCH
; #@! TA.AperFunction,Plated,PTH,ViaDrill
T1C0.0118
; #@! TA.AperFunction,Plated,PTH,ComponentDrill
T2C0.0236
; #@! TA.AperFunction,Plated,PTH,ComponentDrill
T3C0.0315
; #@! TA.AperFunction,Plated,PTH,ComponentDrill
T4C0.0394
%
G90
G05
T1
X5.23Y-3.992
X5.23Y-4.1574
X5.3176Y-3.8178
X5.3271Y-4.0816
X5.3461Y-4.1028
X5.3847Y-4.0383
X5.3901Y-4.0639
X5.476Y-4.2046
X5.4921Y-4.1417
X5.5272Y-4.055
X5.5945Y-3.9488
X5.5981Y-3.805
X5.6256Y-4.0117
X5.73Y-4.0255
X5.7575Y-3.7637
X5.7752Y-4.0176
X5.7851Y-3.9546
X5.7989Y-4.0344
X5.8087Y-3.933
X5.8323Y-4.0344
X5.8858Y-3.6909
X5.9062Y-3.7121
X5.9306Y-3.7741
X5.9603Y-4.1928
X5.9682Y-4.0491
X6.0109Y-3.7263
X6.0784Y-4.0865
X6.1218Y-3.7901
X6.13Y-3.7638
T3
X6.2067Y-3.7283
X6.2067Y-3.8071
X6.2067Y-3.8858
X6.2067Y-3.9646
X6.2067Y-4.0433
X6.2067Y-4.248
X6.2067Y-4.3268
X6.2067Y-4.4055
T4
X5.2736Y-4.4311
X5.3736Y-4.4311
X5.4736Y-4.4311
X5.5736Y-4.4311
X5.7256Y-4.4311
X5.8256Y-4.4311
X5.9256Y-4.4311
X6.0256Y-4.4311
T2
G00X5.1227Y-3.9007
M15
G01X5.0754Y-3.9007
M16
G05
G00X5.1227Y-4.2409
M15
G01X5.0754Y-4.2409
M16
G05
G00X5.2723Y-3.9007
M15
G01X5.2408Y-3.9007
M16
G05
G00X5.2723Y-4.2409
M15
G01X5.2408Y-4.2409
M16
G05
M30
