%TF.GenerationSoftware,KiCad,Pcbnew,9.0.5*%
%TF.CreationDate,2025-12-04T20:43:33+00:00*%
%TF.ProjectId,smart_servo,736d6172-745f-4736-9572-766f2e6b6963,rev?*%
%TF.SameCoordinates,Original*%
%TF.FileFunction,Soldermask,Top*%
%TF.FilePolarity,Negative*%
%FSLAX46Y46*%
G04 Gerber Fmt 4.6, Leading zero omitted, Abs format (unit mm)*
G04 Created by KiCad (PCBNEW 9.0.5) date 2025-12-04 20:43:33*
%MOMM*%
%LPD*%
G01*
G04 APERTURE LIST*
G04 Aperture macros list*
%AMRoundRect*
0 Rectangle with rounded corners*
0 $1 Rounding radius*
0 $2 $3 $4 $5 $6 $7 $8 $9 X,Y pos of 4 corners*
0 Add a 4 corners polygon primitive as box body*
4,1,4,$2,$3,$4,$5,$6,$7,$8,$9,$2,$3,0*
0 Add four circle primitives for the rounded corners*
1,1,$1+$1,$2,$3*
1,1,$1+$1,$4,$5*
1,1,$1+$1,$6,$7*
1,1,$1+$1,$8,$9*
0 Add four rect primitives between the rounded corners*
20,1,$1+$1,$2,$3,$4,$5,0*
20,1,$1+$1,$4,$5,$6,$7,0*
20,1,$1+$1,$6,$7,$8,$9,0*
20,1,$1+$1,$8,$9,$2,$3,0*%
G04 Aperture macros list end*
%ADD10C,0.010000*%
%ADD11RoundRect,0.250000X0.250000X0.475000X-0.250000X0.475000X-0.250000X-0.475000X0.250000X-0.475000X0*%
%ADD12RoundRect,0.102000X-0.654000X0.654000X-0.654000X-0.654000X0.654000X-0.654000X0.654000X0.654000X0*%
%ADD13C,1.512000*%
%ADD14RoundRect,0.200000X0.200000X0.275000X-0.200000X0.275000X-0.200000X-0.275000X0.200000X-0.275000X0*%
%ADD15RoundRect,0.135000X-0.135000X-0.185000X0.135000X-0.185000X0.135000X0.185000X-0.135000X0.185000X0*%
%ADD16RoundRect,0.140000X0.140000X0.170000X-0.140000X0.170000X-0.140000X-0.170000X0.140000X-0.170000X0*%
%ADD17RoundRect,0.100500X0.301500X-0.691500X0.301500X0.691500X-0.301500X0.691500X-0.301500X-0.691500X0*%
%ADD18R,1.700000X1.700000*%
%ADD19C,1.700000*%
%ADD20RoundRect,0.140000X-0.140000X-0.170000X0.140000X-0.170000X0.140000X0.170000X-0.140000X0.170000X0*%
%ADD21RoundRect,0.102000X0.737500X0.225000X-0.737500X0.225000X-0.737500X-0.225000X0.737500X-0.225000X0*%
%ADD22O,2.352400X1.152400*%
%ADD23O,1.952400X1.152400*%
%ADD24RoundRect,0.060500X0.411500X0.181500X-0.411500X0.181500X-0.411500X-0.181500X0.411500X-0.181500X0*%
%ADD25RoundRect,0.102000X0.407739X0.757739X-0.407739X0.757739X-0.407739X-0.757739X0.407739X-0.757739X0*%
%ADD26RoundRect,0.100500X0.691500X0.301500X-0.691500X0.301500X-0.691500X-0.301500X0.691500X-0.301500X0*%
%ADD27RoundRect,0.200000X-0.200000X-0.275000X0.200000X-0.275000X0.200000X0.275000X-0.200000X0.275000X0*%
G04 APERTURE END LIST*
D10*
%TO.C,J1*%
X134729544Y-100556328D02*
X133452544Y-100556328D01*
X133452544Y-99839328D01*
X134729544Y-99839328D01*
X134729544Y-100556328D01*
G36*
X134729544Y-100556328D02*
G01*
X133452544Y-100556328D01*
X133452544Y-99839328D01*
X134729544Y-99839328D01*
X134729544Y-100556328D01*
G37*
X134729544Y-101356328D02*
X133452544Y-101356328D01*
X133452544Y-100639328D01*
X134729544Y-100639328D01*
X134729544Y-101356328D01*
G36*
X134729544Y-101356328D02*
G01*
X133452544Y-101356328D01*
X133452544Y-100639328D01*
X134729544Y-100639328D01*
X134729544Y-101356328D01*
G37*
X134729544Y-101860328D02*
X133452544Y-101860328D01*
X133452544Y-101435328D01*
X134729544Y-101435328D01*
X134729544Y-101860328D01*
G36*
X134729544Y-101860328D02*
G01*
X133452544Y-101860328D01*
X133452544Y-101435328D01*
X134729544Y-101435328D01*
X134729544Y-101860328D01*
G37*
X134729544Y-102360328D02*
X133452544Y-102360328D01*
X133452544Y-101935328D01*
X134729544Y-101935328D01*
X134729544Y-102360328D01*
G36*
X134729544Y-102360328D02*
G01*
X133452544Y-102360328D01*
X133452544Y-101935328D01*
X134729544Y-101935328D01*
X134729544Y-102360328D01*
G37*
X134729544Y-102860328D02*
X133452544Y-102860328D01*
X133452544Y-102435328D01*
X134729544Y-102435328D01*
X134729544Y-102860328D01*
G36*
X134729544Y-102860328D02*
G01*
X133452544Y-102860328D01*
X133452544Y-102435328D01*
X134729544Y-102435328D01*
X134729544Y-102860328D01*
G37*
X134729544Y-103360328D02*
X133452544Y-103360328D01*
X133452544Y-102935328D01*
X134729544Y-102935328D01*
X134729544Y-103360328D01*
G36*
X134729544Y-103360328D02*
G01*
X133452544Y-103360328D01*
X133452544Y-102935328D01*
X134729544Y-102935328D01*
X134729544Y-103360328D01*
G37*
X134729544Y-103860328D02*
X133452544Y-103860328D01*
X133452544Y-103435328D01*
X134729544Y-103435328D01*
X134729544Y-103860328D01*
G36*
X134729544Y-103860328D02*
G01*
X133452544Y-103860328D01*
X133452544Y-103435328D01*
X134729544Y-103435328D01*
X134729544Y-103860328D01*
G37*
X134729544Y-104360328D02*
X133452544Y-104360328D01*
X133452544Y-103935328D01*
X134729544Y-103935328D01*
X134729544Y-104360328D01*
G36*
X134729544Y-104360328D02*
G01*
X133452544Y-104360328D01*
X133452544Y-103935328D01*
X134729544Y-103935328D01*
X134729544Y-104360328D01*
G37*
X134729544Y-104860328D02*
X133452544Y-104860328D01*
X133452544Y-104435328D01*
X134729544Y-104435328D01*
X134729544Y-104860328D01*
G36*
X134729544Y-104860328D02*
G01*
X133452544Y-104860328D01*
X133452544Y-104435328D01*
X134729544Y-104435328D01*
X134729544Y-104860328D01*
G37*
X134729544Y-105360328D02*
X133452544Y-105360328D01*
X133452544Y-104935328D01*
X134729544Y-104935328D01*
X134729544Y-105360328D01*
G36*
X134729544Y-105360328D02*
G01*
X133452544Y-105360328D01*
X133452544Y-104935328D01*
X134729544Y-104935328D01*
X134729544Y-105360328D01*
G37*
X134729544Y-106156328D02*
X133452544Y-106156328D01*
X133452544Y-105439328D01*
X134729544Y-105439328D01*
X134729544Y-106156328D01*
G36*
X134729544Y-106156328D02*
G01*
X133452544Y-106156328D01*
X133452544Y-105439328D01*
X134729544Y-105439328D01*
X134729544Y-106156328D01*
G37*
X134729544Y-106956328D02*
X133452544Y-106956328D01*
X133452544Y-106239328D01*
X134729544Y-106239328D01*
X134729544Y-106956328D01*
G36*
X134729544Y-106956328D02*
G01*
X133452544Y-106956328D01*
X133452544Y-106239328D01*
X134729544Y-106239328D01*
X134729544Y-106956328D01*
G37*
%TD*%
D11*
%TO.C,C1*%
X137991044Y-97997828D03*
X136091044Y-97997828D03*
%TD*%
D12*
%TO.C,J3*%
X157650000Y-102700000D03*
D13*
X157650000Y-100700000D03*
X157650000Y-98700000D03*
X157650000Y-96700000D03*
X157650000Y-94700000D03*
%TD*%
D14*
%TO.C,R1*%
X133875000Y-97500000D03*
X132225000Y-97500000D03*
%TD*%
D15*
%TO.C,R3*%
X143881044Y-98397828D03*
X144901044Y-98397828D03*
%TD*%
D16*
%TO.C,C5*%
X152230000Y-96250000D03*
X151270000Y-96250000D03*
%TD*%
D17*
%TO.C,U1*%
X146341044Y-97927828D03*
X148241044Y-97927828D03*
X147291044Y-95597828D03*
%TD*%
D11*
%TO.C,C2*%
X142191044Y-97997828D03*
X140291044Y-97997828D03*
%TD*%
D18*
%TO.C,J5*%
X133950000Y-112550000D03*
D19*
X136490000Y-112550000D03*
X139030000Y-112550000D03*
X141570000Y-112550000D03*
%TD*%
D16*
%TO.C,C3*%
X153441044Y-103797828D03*
X152481044Y-103797828D03*
%TD*%
D12*
%TO.C,J2*%
X157650000Y-111900000D03*
D13*
X157650000Y-109900000D03*
X157650000Y-107900000D03*
%TD*%
D20*
%TO.C,C4*%
X153770000Y-96250000D03*
X154730000Y-96250000D03*
%TD*%
D21*
%TO.C,IC2*%
X149979044Y-105722828D03*
X149979044Y-105072828D03*
X149979044Y-104422828D03*
X149979044Y-103772828D03*
X149979044Y-103122828D03*
X149979044Y-102472828D03*
X149979044Y-101822828D03*
X149979044Y-101172828D03*
X149979044Y-100522828D03*
X149979044Y-99872828D03*
X144103044Y-99872828D03*
X144103044Y-100522828D03*
X144103044Y-101172828D03*
X144103044Y-101822828D03*
X144103044Y-102472828D03*
X144103044Y-103122828D03*
X144103044Y-103772828D03*
X144103044Y-104422828D03*
X144103044Y-105072828D03*
X144103044Y-105722828D03*
%TD*%
D22*
%TO.C,J1*%
X129516044Y-99077828D03*
X129516044Y-107717828D03*
D23*
X133516044Y-99077828D03*
X133516044Y-107717828D03*
%TD*%
D24*
%TO.C,U2*%
X153661044Y-94750000D03*
X153661044Y-94250000D03*
X153661044Y-93750000D03*
X153661044Y-93250000D03*
X151691044Y-93250000D03*
X151691044Y-93750000D03*
X151691044Y-94250000D03*
X151691044Y-94750000D03*
D25*
X152676044Y-94000000D03*
%TD*%
D18*
%TO.C,J4*%
X153050000Y-112550000D03*
D19*
X150510000Y-112550000D03*
X147970000Y-112550000D03*
X145430000Y-112550000D03*
%TD*%
D15*
%TO.C,R4*%
X146540000Y-107350000D03*
X147560000Y-107350000D03*
%TD*%
D26*
%TO.C,U3*%
X140406044Y-101947828D03*
X140406044Y-100047828D03*
X138076044Y-100997828D03*
%TD*%
D27*
%TO.C,R2*%
X136025000Y-106150000D03*
X137675000Y-106150000D03*
%TD*%
M02*
