%TF.GenerationSoftware,KiCad,Pcbnew,9.0.5*%
%TF.CreationDate,2025-12-04T20:43:33+00:00*%
%TF.ProjectId,smart_servo,736d6172-745f-4736-9572-766f2e6b6963,rev?*%
%TF.SameCoordinates,Original*%
%TF.FileFunction,Copper,L2,Bot*%
%TF.FilePolarity,Positive*%
%FSLAX46Y46*%
G04 Gerber Fmt 4.6, Leading zero omitted, Abs format (unit mm)*
G04 Created by KiCad (PCBNEW 9.0.5) date 2025-12-04 20:43:33*
%MOMM*%
%LPD*%
G01*
G04 APERTURE LIST*
%TA.AperFunction,ComponentPad*%
%ADD10R,1.308000X1.308000*%
%TD*%
%TA.AperFunction,ComponentPad*%
%ADD11C,1.308000*%
%TD*%
%TA.AperFunction,ComponentPad*%
%ADD12R,1.700000X1.700000*%
%TD*%
%TA.AperFunction,ComponentPad*%
%ADD13C,1.700000*%
%TD*%
%TA.AperFunction,ComponentPad*%
%ADD14O,2.200000X1.000000*%
%TD*%
%TA.AperFunction,ComponentPad*%
%ADD15O,1.800000X1.000000*%
%TD*%
%TA.AperFunction,ViaPad*%
%ADD16C,0.500000*%
%TD*%
%TA.AperFunction,Conductor*%
%ADD17C,0.600000*%
%TD*%
%TA.AperFunction,Conductor*%
%ADD18C,0.300000*%
%TD*%
%TA.AperFunction,Conductor*%
%ADD19C,0.400000*%
%TD*%
G04 APERTURE END LIST*
D10*
%TO.P,J3,1,1*%
%TO.N,/ADC*%
X157650000Y-102700000D03*
D11*
%TO.P,J3,2,2*%
%TO.N,/VREF*%
X157650000Y-100700000D03*
%TO.P,J3,3,3*%
%TO.N,GND*%
X157650000Y-98700000D03*
%TO.P,J3,4,4*%
%TO.N,/OUT2*%
X157650000Y-96700000D03*
%TO.P,J3,5,5*%
%TO.N,/OUT1*%
X157650000Y-94700000D03*
%TD*%
D12*
%TO.P,J5,1,Pin_1*%
%TO.N,/PA5*%
X133950000Y-112550000D03*
D13*
%TO.P,J5,2,Pin_2*%
%TO.N,/PB1*%
X136490000Y-112550000D03*
%TO.P,J5,3,Pin_3*%
%TO.N,/SWDIO*%
X139030000Y-112550000D03*
%TO.P,J5,4,Pin_4*%
%TO.N,/SWCLK*%
X141570000Y-112550000D03*
%TD*%
D10*
%TO.P,J2,1,1*%
%TO.N,/I2C_SCL*%
X157650000Y-111900000D03*
D11*
%TO.P,J2,2,2*%
%TO.N,/I2C_SDA*%
X157650000Y-109900000D03*
%TO.P,J2,3,3*%
%TO.N,GND*%
X157650000Y-107900000D03*
%TD*%
D14*
%TO.P,J1,SH1,SHIELD1*%
%TO.N,GND*%
X129516044Y-99077828D03*
%TO.P,J1,SH2,SHIELD2*%
X129516044Y-107717828D03*
D15*
%TO.P,J1,SH3,SHIELD3*%
X133516044Y-99077828D03*
%TO.P,J1,SH4,SHIELD4*%
X133516044Y-107717828D03*
%TD*%
D12*
%TO.P,J4,1,Pin_1*%
%TO.N,/PA0*%
X153050000Y-112550000D03*
D13*
%TO.P,J4,2,Pin_2*%
%TO.N,/PA1*%
X150510000Y-112550000D03*
%TO.P,J4,3,Pin_3*%
%TO.N,/PA2*%
X147970000Y-112550000D03*
%TO.P,J4,4,Pin_4*%
%TO.N,/PA3*%
X145430000Y-112550000D03*
%TD*%
D16*
%TO.N,GND*%
X150637098Y-95862902D03*
X135066044Y-96972828D03*
X151391044Y-106497828D03*
X152676044Y-94647828D03*
X155494396Y-96268165D03*
X140391044Y-102997828D03*
X146241044Y-95597828D03*
X142191044Y-96647828D03*
X145541044Y-102247828D03*
X139091044Y-106797828D03*
X154391044Y-103797828D03*
%TO.N,+5V*%
X132841044Y-101397828D03*
X132841044Y-105597828D03*
%TO.N,/D+*%
X135790011Y-104209960D03*
X136909533Y-103222828D03*
%TO.N,/PWM1*%
X150018329Y-94286657D03*
X147540044Y-99897828D03*
%TO.N,/PA2*%
X147291044Y-102472828D03*
%TO.N,/PA5*%
X142100000Y-100300000D03*
X139500000Y-105200000D03*
%TO.N,/PA1*%
X148139572Y-102472828D03*
%TO.N,/PWM2*%
X146940309Y-100447093D03*
X149500000Y-93750000D03*
%TO.N,/D-*%
X135308224Y-103672828D03*
X136771732Y-102572828D03*
%TO.N,/PA0*%
X151591044Y-102847828D03*
%TO.N,/PB1*%
X142891044Y-101897828D03*
%TO.N,/PA3*%
X146691044Y-102047828D03*
%TO.N,/OUT1*%
X155700735Y-95599265D03*
%TD*%
D17*
%TO.N,+5V*%
X132841044Y-101397828D02*
X131991044Y-102247828D01*
X131991044Y-104747828D02*
X132841044Y-105597828D01*
X131991044Y-102247828D02*
X131991044Y-104747828D01*
D18*
%TO.N,/D+*%
X135922401Y-104209960D02*
X136909533Y-103222828D01*
X135790011Y-104209960D02*
X135922401Y-104209960D01*
%TO.N,/PWM1*%
X149500000Y-94750000D02*
X149500000Y-95612199D01*
X149963343Y-94286657D02*
X149500000Y-94750000D01*
X149500000Y-95612199D02*
X147541044Y-97571155D01*
X147541044Y-97571155D02*
X147541044Y-99896828D01*
X150018329Y-94286657D02*
X149963343Y-94286657D01*
X147541044Y-99896828D02*
X147540044Y-99897828D01*
%TO.N,/PA2*%
X147291044Y-110867828D02*
X147291044Y-102472828D01*
X147970000Y-111546784D02*
X147291044Y-110867828D01*
X147970000Y-112550000D02*
X147970000Y-111546784D01*
%TO.N,/PA5*%
X139500000Y-105200000D02*
X141650000Y-103050000D01*
X141650000Y-103050000D02*
X141650000Y-100750000D01*
X141650000Y-100750000D02*
X142100000Y-100300000D01*
%TO.N,/PA1*%
X150510000Y-111546784D02*
X148139572Y-109176356D01*
X148139572Y-109176356D02*
X148139572Y-102472828D01*
X150510000Y-112550000D02*
X150510000Y-111546784D01*
%TO.N,/PWM2*%
X149500000Y-93750000D02*
X148750000Y-94500000D01*
X146940309Y-100097093D02*
X146940309Y-100447093D01*
X148750000Y-94500000D02*
X148750000Y-95390343D01*
X146940044Y-100096828D02*
X146940309Y-100097093D01*
X146940044Y-97200299D02*
X146940044Y-100096828D01*
X148750000Y-95390343D02*
X146940044Y-97200299D01*
%TO.N,/D-*%
X135308224Y-103672828D02*
X135671732Y-103672828D01*
X135671732Y-103672828D02*
X136771732Y-102572828D01*
D19*
%TO.N,/PA0*%
X151591044Y-102847828D02*
X152951044Y-104207828D01*
X152951044Y-112451044D02*
X153050000Y-112550000D01*
X152951044Y-104207828D02*
X152951044Y-112451044D01*
D18*
%TO.N,/PB1*%
X140650000Y-105150000D02*
X142450000Y-103350000D01*
X142450000Y-102338872D02*
X142891044Y-101897828D01*
X136490000Y-112550000D02*
X136490000Y-110668872D01*
X142450000Y-103350000D02*
X142450000Y-102338872D01*
X136490000Y-110668872D02*
X140650000Y-106508872D01*
X140650000Y-106508872D02*
X140650000Y-105150000D01*
%TO.N,/PA3*%
X145430000Y-111348872D02*
X146691044Y-110087828D01*
X146691044Y-110087828D02*
X146691044Y-102047828D01*
X145430000Y-112550000D02*
X145430000Y-111348872D01*
%TO.N,/OUT1*%
X155700735Y-95599265D02*
X156750735Y-95599265D01*
X156750735Y-95599265D02*
X157650000Y-94700000D01*
%TD*%
%TA.AperFunction,Conductor*%
%TO.N,GND*%
G36*
X160454042Y-91951865D02*
G01*
X160478041Y-91953437D01*
X160689839Y-91967319D01*
X160705900Y-91969434D01*
X160933662Y-92014739D01*
X160949316Y-92018934D01*
X161169218Y-92093581D01*
X161184189Y-92099782D01*
X161381453Y-92197061D01*
X161392460Y-92202490D01*
X161406506Y-92210600D01*
X161599583Y-92339609D01*
X161612452Y-92349483D01*
X161787038Y-92502592D01*
X161798507Y-92514061D01*
X161951616Y-92688647D01*
X161961490Y-92701516D01*
X162090499Y-92894593D01*
X162098609Y-92908639D01*
X162185538Y-93084912D01*
X162201313Y-93116902D01*
X162201314Y-93116903D01*
X162207521Y-93131888D01*
X162282163Y-93351776D01*
X162286361Y-93367443D01*
X162331663Y-93595187D01*
X162333781Y-93611269D01*
X162349235Y-93847054D01*
X162349500Y-93855164D01*
X162349500Y-112944833D01*
X162349235Y-112952943D01*
X162333781Y-113188730D01*
X162331663Y-113204812D01*
X162286361Y-113432556D01*
X162282163Y-113448223D01*
X162207521Y-113668111D01*
X162201314Y-113683096D01*
X162098609Y-113891360D01*
X162090499Y-113905406D01*
X161961490Y-114098483D01*
X161951616Y-114111352D01*
X161798507Y-114285938D01*
X161787038Y-114297407D01*
X161612452Y-114450516D01*
X161599584Y-114460389D01*
X161599583Y-114460390D01*
X161406506Y-114589399D01*
X161392460Y-114597509D01*
X161184196Y-114700214D01*
X161169211Y-114706421D01*
X160949323Y-114781063D01*
X160933656Y-114785261D01*
X160705912Y-114830563D01*
X160689830Y-114832681D01*
X160454043Y-114848135D01*
X160445933Y-114848400D01*
X128924050Y-114848400D01*
X128915940Y-114848134D01*
X128894931Y-114846756D01*
X128680173Y-114832680D01*
X128664093Y-114830563D01*
X128436345Y-114785261D01*
X128420678Y-114781063D01*
X128200788Y-114706421D01*
X128185802Y-114700214D01*
X127977538Y-114597509D01*
X127963491Y-114589399D01*
X127805810Y-114484040D01*
X127770413Y-114460388D01*
X127757546Y-114450515D01*
X127582961Y-114297407D01*
X127571492Y-114285938D01*
X127418384Y-114111353D01*
X127408510Y-114098485D01*
X127344329Y-114002432D01*
X127279499Y-113905406D01*
X127271390Y-113891361D01*
X127247934Y-113843797D01*
X127168682Y-113683090D01*
X127162478Y-113668111D01*
X127148024Y-113625532D01*
X127132606Y-113580110D01*
X127087836Y-113448221D01*
X127083638Y-113432554D01*
X127048881Y-113257820D01*
X127038335Y-113204801D01*
X127036220Y-113188745D01*
X127020764Y-112952930D01*
X127020500Y-112944850D01*
X127020500Y-112362568D01*
X127694374Y-112362568D01*
X127694374Y-112585476D01*
X127694375Y-112585492D01*
X127723468Y-112806478D01*
X127723469Y-112806483D01*
X127723470Y-112806489D01*
X127781164Y-113021806D01*
X127781167Y-113021816D01*
X127856630Y-113203999D01*
X127866469Y-113227752D01*
X127977926Y-113420800D01*
X127977931Y-113420806D01*
X127977932Y-113420808D01*
X128113625Y-113597648D01*
X128113631Y-113597655D01*
X128271244Y-113755268D01*
X128271251Y-113755274D01*
X128331566Y-113801555D01*
X128448100Y-113890974D01*
X128641148Y-114002431D01*
X128847093Y-114087736D01*
X129062411Y-114145430D01*
X129283417Y-114174526D01*
X129283424Y-114174526D01*
X129506324Y-114174526D01*
X129506331Y-114174526D01*
X129727337Y-114145430D01*
X129942655Y-114087736D01*
X130148600Y-114002431D01*
X130341648Y-113890974D01*
X130518498Y-113755273D01*
X130676121Y-113597650D01*
X130811822Y-113420800D01*
X130923279Y-113227752D01*
X131008584Y-113021807D01*
X131066278Y-112806489D01*
X131095374Y-112585483D01*
X131095374Y-112362569D01*
X131066278Y-112141563D01*
X131008584Y-111926245D01*
X130923279Y-111720300D01*
X130906096Y-111690539D01*
X130883923Y-111652135D01*
X132599500Y-111652135D01*
X132599500Y-113447870D01*
X132599501Y-113447876D01*
X132605908Y-113507483D01*
X132656202Y-113642328D01*
X132656206Y-113642335D01*
X132742452Y-113757544D01*
X132742455Y-113757547D01*
X132857664Y-113843793D01*
X132857671Y-113843797D01*
X132992517Y-113894091D01*
X132992516Y-113894091D01*
X132999444Y-113894835D01*
X133052127Y-113900500D01*
X134847872Y-113900499D01*
X134907483Y-113894091D01*
X135042331Y-113843796D01*
X135157546Y-113757546D01*
X135243796Y-113642331D01*
X135292810Y-113510916D01*
X135334681Y-113454984D01*
X135400145Y-113430566D01*
X135468418Y-113445417D01*
X135496673Y-113466569D01*
X135610213Y-113580109D01*
X135782179Y-113705048D01*
X135782181Y-113705049D01*
X135782184Y-113705051D01*
X135971588Y-113801557D01*
X136173757Y-113867246D01*
X136383713Y-113900500D01*
X136383714Y-113900500D01*
X136596286Y-113900500D01*
X136596287Y-113900500D01*
X136806243Y-113867246D01*
X137008412Y-113801557D01*
X137197816Y-113705051D01*
X137284138Y-113642335D01*
X137369786Y-113580109D01*
X137369788Y-113580106D01*
X137369792Y-113580104D01*
X137520104Y-113429792D01*
X137520106Y-113429788D01*
X137520109Y-113429786D01*
X137645048Y-113257820D01*
X137645047Y-113257820D01*
X137645051Y-113257816D01*
X137649514Y-113249054D01*
X137697488Y-113198259D01*
X137765308Y-113181463D01*
X137831444Y-113203999D01*
X137870486Y-113249056D01*
X137874951Y-113257820D01*
X137999890Y-113429786D01*
X138150213Y-113580109D01*
X138322179Y-113705048D01*
X138322181Y-113705049D01*
X138322184Y-113705051D01*
X138511588Y-113801557D01*
X138713757Y-113867246D01*
X138923713Y-113900500D01*
X138923714Y-113900500D01*
X139136286Y-113900500D01*
X139136287Y-113900500D01*
X139346243Y-113867246D01*
X139548412Y-113801557D01*
X139737816Y-113705051D01*
X139824138Y-113642335D01*
X139909786Y-113580109D01*
X139909788Y-113580106D01*
X139909792Y-113580104D01*
X140060104Y-113429792D01*
X140060106Y-113429788D01*
X140060109Y-113429786D01*
X140185048Y-113257820D01*
X140185047Y-113257820D01*
X140185051Y-113257816D01*
X140189514Y-113249054D01*
X140237488Y-113198259D01*
X140305308Y-113181463D01*
X140371444Y-113203999D01*
X140410486Y-113249056D01*
X140414951Y-113257820D01*
X140539890Y-113429786D01*
X140690213Y-113580109D01*
X140862179Y-113705048D01*
X140862181Y-113705049D01*
X140862184Y-113705051D01*
X141051588Y-113801557D01*
X141253757Y-113867246D01*
X141463713Y-113900500D01*
X141463714Y-113900500D01*
X141676286Y-113900500D01*
X141676287Y-113900500D01*
X141886243Y-113867246D01*
X142088412Y-113801557D01*
X142277816Y-113705051D01*
X142364138Y-113642335D01*
X142449786Y-113580109D01*
X142449788Y-113580106D01*
X142449792Y-113580104D01*
X142600104Y-113429792D01*
X142600106Y-113429788D01*
X142600109Y-113429786D01*
X142725048Y-113257820D01*
X142725047Y-113257820D01*
X142725051Y-113257816D01*
X142821557Y-113068412D01*
X142887246Y-112866243D01*
X142920500Y-112656287D01*
X142920500Y-112443713D01*
X144079500Y-112443713D01*
X144079500Y-112656286D01*
X144106075Y-112824077D01*
X144112754Y-112866243D01*
X144173922Y-113054499D01*
X144178444Y-113068414D01*
X144274951Y-113257820D01*
X144399890Y-113429786D01*
X144550213Y-113580109D01*
X144722179Y-113705048D01*
X144722181Y-113705049D01*
X144722184Y-113705051D01*
X144911588Y-113801557D01*
X145113757Y-113867246D01*
X145323713Y-113900500D01*
X145323714Y-113900500D01*
X145536286Y-113900500D01*
X145536287Y-113900500D01*
X145746243Y-113867246D01*
X145948412Y-113801557D01*
X146137816Y-113705051D01*
X146224138Y-113642335D01*
X146309786Y-113580109D01*
X146309788Y-113580106D01*
X146309792Y-113580104D01*
X146460104Y-113429792D01*
X146460106Y-113429788D01*
X146460109Y-113429786D01*
X146585048Y-113257820D01*
X146585047Y-113257820D01*
X146585051Y-113257816D01*
X146589514Y-113249054D01*
X146637488Y-113198259D01*
X146705308Y-113181463D01*
X146771444Y-113203999D01*
X146810486Y-113249056D01*
X146814951Y-113257820D01*
X146939890Y-113429786D01*
X147090213Y-113580109D01*
X147262179Y-113705048D01*
X147262181Y-113705049D01*
X147262184Y-113705051D01*
X147451588Y-113801557D01*
X147653757Y-113867246D01*
X147863713Y-113900500D01*
X147863714Y-113900500D01*
X148076286Y-113900500D01*
X148076287Y-113900500D01*
X148286243Y-113867246D01*
X148488412Y-113801557D01*
X148677816Y-113705051D01*
X148764138Y-113642335D01*
X148849786Y-113580109D01*
X148849788Y-113580106D01*
X148849792Y-113580104D01*
X149000104Y-113429792D01*
X149000106Y-113429788D01*
X149000109Y-113429786D01*
X149125048Y-113257820D01*
X149125047Y-113257820D01*
X149125051Y-113257816D01*
X149129514Y-113249054D01*
X149177488Y-113198259D01*
X149245308Y-113181463D01*
X149311444Y-113203999D01*
X149350486Y-113249056D01*
X149354951Y-113257820D01*
X149479890Y-113429786D01*
X149630213Y-113580109D01*
X149802179Y-113705048D01*
X149802181Y-113705049D01*
X149802184Y-113705051D01*
X149991588Y-113801557D01*
X150193757Y-113867246D01*
X150403713Y-113900500D01*
X150403714Y-113900500D01*
X150616286Y-113900500D01*
X150616287Y-113900500D01*
X150826243Y-113867246D01*
X151028412Y-113801557D01*
X151217816Y-113705051D01*
X151389792Y-113580104D01*
X151503329Y-113466566D01*
X151564648Y-113433084D01*
X151634340Y-113438068D01*
X151690274Y-113479939D01*
X151707189Y-113510917D01*
X151756202Y-113642328D01*
X151756206Y-113642335D01*
X151842452Y-113757544D01*
X151842455Y-113757547D01*
X151957664Y-113843793D01*
X151957671Y-113843797D01*
X152092517Y-113894091D01*
X152092516Y-113894091D01*
X152099444Y-113894835D01*
X152152127Y-113900500D01*
X153947872Y-113900499D01*
X154007483Y-113894091D01*
X154142331Y-113843796D01*
X154257546Y-113757546D01*
X154343796Y-113642331D01*
X154394091Y-113507483D01*
X154400500Y-113447873D01*
X154400499Y-111652128D01*
X154394091Y-111592517D01*
X154392810Y-111589083D01*
X154343797Y-111457671D01*
X154343793Y-111457664D01*
X154257547Y-111342455D01*
X154257544Y-111342452D01*
X154142335Y-111256206D01*
X154142328Y-111256202D01*
X154007482Y-111205908D01*
X154007483Y-111205908D01*
X153947883Y-111199501D01*
X153947881Y-111199500D01*
X153947873Y-111199500D01*
X153947865Y-111199500D01*
X153775544Y-111199500D01*
X153708505Y-111179815D01*
X153662750Y-111127011D01*
X153651544Y-111075500D01*
X153651544Y-109809139D01*
X156495500Y-109809139D01*
X156495500Y-109990860D01*
X156523928Y-110170347D01*
X156523928Y-110170350D01*
X156580081Y-110343171D01*
X156580083Y-110343174D01*
X156662583Y-110505090D01*
X156762639Y-110642804D01*
X156786119Y-110708610D01*
X156770294Y-110776664D01*
X156736633Y-110814956D01*
X156638452Y-110888455D01*
X156552206Y-111003664D01*
X156552202Y-111003671D01*
X156501908Y-111138517D01*
X156495783Y-111195492D01*
X156495501Y-111198123D01*
X156495500Y-111198135D01*
X156495500Y-112601870D01*
X156495501Y-112601876D01*
X156501908Y-112661483D01*
X156552202Y-112796328D01*
X156552206Y-112796335D01*
X156638452Y-112911544D01*
X156638455Y-112911547D01*
X156753664Y-112997793D01*
X156753671Y-112997797D01*
X156888517Y-113048091D01*
X156888516Y-113048091D01*
X156895444Y-113048835D01*
X156948127Y-113054500D01*
X158351872Y-113054499D01*
X158411483Y-113048091D01*
X158546331Y-112997796D01*
X158661546Y-112911546D01*
X158747796Y-112796331D01*
X158798091Y-112661483D01*
X158804500Y-112601873D01*
X158804499Y-111198128D01*
X158798091Y-111138517D01*
X158795704Y-111132118D01*
X158747797Y-111003671D01*
X158747793Y-111003664D01*
X158661547Y-110888455D01*
X158563366Y-110814956D01*
X158521496Y-110759022D01*
X158516512Y-110689331D01*
X158537361Y-110642804D01*
X158606954Y-110547019D01*
X158637417Y-110505090D01*
X158719917Y-110343174D01*
X158776072Y-110170346D01*
X158804500Y-109990861D01*
X158804500Y-109809139D01*
X158776072Y-109629654D01*
X158776071Y-109629650D01*
X158776071Y-109629649D01*
X158719918Y-109456828D01*
X158719916Y-109456825D01*
X158637416Y-109294909D01*
X158530603Y-109147894D01*
X158402106Y-109019397D01*
X158323889Y-108962569D01*
X158281226Y-108907241D01*
X158277341Y-108880895D01*
X157696447Y-108300000D01*
X157702661Y-108300000D01*
X157804394Y-108272741D01*
X157895606Y-108220080D01*
X157970080Y-108145606D01*
X158022741Y-108054394D01*
X158050000Y-107952661D01*
X158050000Y-107946446D01*
X158624949Y-108521395D01*
X158636986Y-108504831D01*
X158719451Y-108342984D01*
X158775584Y-108170225D01*
X158804000Y-107990821D01*
X158804000Y-107809178D01*
X158775584Y-107629774D01*
X158719450Y-107457012D01*
X158636993Y-107295179D01*
X158636985Y-107295165D01*
X158624950Y-107278603D01*
X158624949Y-107278602D01*
X158050000Y-107853552D01*
X158050000Y-107847339D01*
X158022741Y-107745606D01*
X157970080Y-107654394D01*
X157895606Y-107579920D01*
X157804394Y-107527259D01*
X157702661Y-107500000D01*
X157696447Y-107500000D01*
X158271396Y-106925049D01*
X158271395Y-106925048D01*
X158254834Y-106913014D01*
X158254830Y-106913012D01*
X158092984Y-106830548D01*
X157920225Y-106774415D01*
X157740821Y-106746000D01*
X157559179Y-106746000D01*
X157379774Y-106774415D01*
X157207015Y-106830548D01*
X157045170Y-106913012D01*
X157045161Y-106913018D01*
X157028603Y-106925048D01*
X157028602Y-106925049D01*
X157603554Y-107500000D01*
X157597339Y-107500000D01*
X157495606Y-107527259D01*
X157404394Y-107579920D01*
X157329920Y-107654394D01*
X157277259Y-107745606D01*
X157250000Y-107847339D01*
X157250000Y-107853553D01*
X156675049Y-107278602D01*
X156675048Y-107278603D01*
X156663018Y-107295161D01*
X156663012Y-107295170D01*
X156580548Y-107457015D01*
X156524415Y-107629774D01*
X156496000Y-107809178D01*
X156496000Y-107990821D01*
X156524415Y-108170225D01*
X156580548Y-108342984D01*
X156663012Y-108504830D01*
X156663014Y-108504834D01*
X156675048Y-108521395D01*
X156675049Y-108521396D01*
X157250000Y-107946445D01*
X157250000Y-107952661D01*
X157277259Y-108054394D01*
X157329920Y-108145606D01*
X157404394Y-108220080D01*
X157495606Y-108272741D01*
X157597339Y-108300000D01*
X157603554Y-108300000D01*
X157020404Y-108883147D01*
X157012471Y-108920906D01*
X156976106Y-108962571D01*
X156897900Y-109019392D01*
X156897891Y-109019399D01*
X156769399Y-109147891D01*
X156769399Y-109147892D01*
X156769397Y-109147894D01*
X156723525Y-109211030D01*
X156662583Y-109294909D01*
X156580083Y-109456825D01*
X156580081Y-109456828D01*
X156523928Y-109629649D01*
X156523928Y-109629652D01*
X156495500Y-109809139D01*
X153651544Y-109809139D01*
X153651544Y-104138832D01*
X153629563Y-104028329D01*
X153624624Y-104003500D01*
X153623381Y-104000500D01*
X153576746Y-103887912D01*
X153571819Y-103876017D01*
X153557440Y-103854498D01*
X153495159Y-103761287D01*
X153480618Y-103746746D01*
X153397586Y-103663714D01*
X152294727Y-102560854D01*
X152267846Y-102520624D01*
X152256128Y-102492333D01*
X152256124Y-102492326D01*
X152173995Y-102369412D01*
X152173992Y-102369408D01*
X152069463Y-102264879D01*
X152069459Y-102264876D01*
X151946545Y-102182747D01*
X151946532Y-102182740D01*
X151809961Y-102126171D01*
X151809951Y-102126168D01*
X151664964Y-102097328D01*
X151664962Y-102097328D01*
X151517126Y-102097328D01*
X151517124Y-102097328D01*
X151372136Y-102126168D01*
X151372126Y-102126171D01*
X151235555Y-102182740D01*
X151235542Y-102182747D01*
X151112628Y-102264876D01*
X151112624Y-102264879D01*
X151008095Y-102369408D01*
X151008092Y-102369412D01*
X150925963Y-102492326D01*
X150925956Y-102492339D01*
X150869387Y-102628910D01*
X150869384Y-102628920D01*
X150840544Y-102773907D01*
X150840544Y-102773910D01*
X150840544Y-102921746D01*
X150840544Y-102921748D01*
X150840543Y-102921748D01*
X150869384Y-103066735D01*
X150869387Y-103066745D01*
X150925956Y-103203316D01*
X150925963Y-103203329D01*
X151008092Y-103326243D01*
X151008095Y-103326247D01*
X151112624Y-103430776D01*
X151112628Y-103430779D01*
X151235542Y-103512908D01*
X151235549Y-103512912D01*
X151263841Y-103524631D01*
X151304070Y-103551511D01*
X152214225Y-104461665D01*
X152247710Y-104522988D01*
X152250544Y-104549346D01*
X152250544Y-111077536D01*
X152230859Y-111144575D01*
X152178055Y-111190330D01*
X152139798Y-111200826D01*
X152092516Y-111205908D01*
X151957671Y-111256202D01*
X151957664Y-111256206D01*
X151842455Y-111342452D01*
X151842452Y-111342455D01*
X151756206Y-111457664D01*
X151756203Y-111457669D01*
X151707189Y-111589083D01*
X151665317Y-111645016D01*
X151599853Y-111669433D01*
X151531580Y-111654581D01*
X151503326Y-111633430D01*
X151389786Y-111519890D01*
X151217819Y-111394951D01*
X151217818Y-111394950D01*
X151217816Y-111394949D01*
X151174141Y-111372695D01*
X151123346Y-111324721D01*
X151115883Y-111309680D01*
X151086465Y-111238657D01*
X151064585Y-111205910D01*
X151064584Y-111205908D01*
X151064584Y-111205907D01*
X151015279Y-111132118D01*
X151015273Y-111132110D01*
X148826391Y-108943228D01*
X148792906Y-108881905D01*
X148790072Y-108855547D01*
X148790072Y-102886668D01*
X148803188Y-102834309D01*
X148802325Y-102833952D01*
X148861228Y-102691745D01*
X148861230Y-102691741D01*
X148881131Y-102591696D01*
X148890072Y-102546748D01*
X148890072Y-102398907D01*
X148861231Y-102253920D01*
X148861230Y-102253919D01*
X148861230Y-102253915D01*
X148846077Y-102217333D01*
X148804659Y-102117339D01*
X148804652Y-102117326D01*
X148722523Y-101994412D01*
X148722520Y-101994408D01*
X148617991Y-101889879D01*
X148617987Y-101889876D01*
X148495073Y-101807747D01*
X148495060Y-101807740D01*
X148358489Y-101751171D01*
X148358479Y-101751168D01*
X148213492Y-101722328D01*
X148213490Y-101722328D01*
X148065654Y-101722328D01*
X148065652Y-101722328D01*
X147920664Y-101751168D01*
X147920658Y-101751170D01*
X147784080Y-101807742D01*
X147778703Y-101810617D01*
X147778139Y-101809561D01*
X147717513Y-101828540D01*
X147651949Y-101810549D01*
X147651913Y-101810617D01*
X147651613Y-101810457D01*
X147650134Y-101810051D01*
X147646574Y-101807763D01*
X147646535Y-101807742D01*
X147509957Y-101751170D01*
X147509951Y-101751168D01*
X147428263Y-101734919D01*
X147366352Y-101702534D01*
X147349353Y-101682193D01*
X147273995Y-101569411D01*
X147169463Y-101464879D01*
X147169459Y-101464876D01*
X147074506Y-101401430D01*
X147029701Y-101347818D01*
X147020994Y-101278493D01*
X147051149Y-101215465D01*
X147110592Y-101178746D01*
X147119206Y-101176711D01*
X147126378Y-101175284D01*
X147159222Y-101168751D01*
X147295804Y-101112177D01*
X147418725Y-101030044D01*
X147523260Y-100925509D01*
X147605393Y-100802588D01*
X147648895Y-100697563D01*
X147692733Y-100643165D01*
X147739264Y-100623403D01*
X147758957Y-100619486D01*
X147895539Y-100562912D01*
X147899514Y-100560256D01*
X147987951Y-100501165D01*
X148002182Y-100491655D01*
X148018460Y-100480779D01*
X148122995Y-100376244D01*
X148205128Y-100253323D01*
X148261702Y-100116741D01*
X148271140Y-100069290D01*
X148290544Y-99971748D01*
X148290544Y-99823907D01*
X148261703Y-99678920D01*
X148261702Y-99678919D01*
X148261702Y-99678915D01*
X148261700Y-99678910D01*
X148202797Y-99536704D01*
X148204140Y-99536147D01*
X148191544Y-99485858D01*
X148191544Y-97891962D01*
X148211229Y-97824923D01*
X148227863Y-97804281D01*
X150005273Y-96026871D01*
X150005276Y-96026868D01*
X150076465Y-95920326D01*
X150125501Y-95801943D01*
X150128074Y-95789009D01*
X150136831Y-95744988D01*
X150150500Y-95676270D01*
X150150500Y-95673185D01*
X154950234Y-95673185D01*
X154979075Y-95818172D01*
X154979078Y-95818182D01*
X155035647Y-95954753D01*
X155035654Y-95954766D01*
X155117783Y-96077680D01*
X155117786Y-96077684D01*
X155222315Y-96182213D01*
X155222319Y-96182216D01*
X155345233Y-96264345D01*
X155345246Y-96264352D01*
X155481817Y-96320921D01*
X155481822Y-96320923D01*
X155481826Y-96320923D01*
X155481827Y-96320924D01*
X155626814Y-96349765D01*
X155626817Y-96349765D01*
X155774655Y-96349765D01*
X155872197Y-96330361D01*
X155919648Y-96320923D01*
X156056230Y-96264349D01*
X156056231Y-96264348D01*
X156061857Y-96262018D01*
X156062214Y-96262879D01*
X156114575Y-96249765D01*
X156411706Y-96249765D01*
X156478745Y-96269450D01*
X156524500Y-96322254D01*
X156534444Y-96391412D01*
X156529636Y-96412085D01*
X156523929Y-96429646D01*
X156523928Y-96429652D01*
X156495500Y-96609139D01*
X156495500Y-96790860D01*
X156523928Y-96970347D01*
X156523928Y-96970350D01*
X156580081Y-97143171D01*
X156580083Y-97143174D01*
X156662583Y-97305090D01*
X156769397Y-97452106D01*
X156897894Y-97580603D01*
X156976107Y-97637428D01*
X157018771Y-97692757D01*
X157022655Y-97719102D01*
X157603554Y-98300000D01*
X157597339Y-98300000D01*
X157495606Y-98327259D01*
X157404394Y-98379920D01*
X157329920Y-98454394D01*
X157277259Y-98545606D01*
X157250000Y-98647339D01*
X157250000Y-98653553D01*
X156675049Y-98078602D01*
X156675048Y-98078603D01*
X156663018Y-98095161D01*
X156663012Y-98095170D01*
X156580548Y-98257015D01*
X156524415Y-98429774D01*
X156496000Y-98609178D01*
X156496000Y-98790821D01*
X156524415Y-98970225D01*
X156580548Y-99142984D01*
X156663012Y-99304830D01*
X156663014Y-99304834D01*
X156675048Y-99321395D01*
X156675049Y-99321396D01*
X157250000Y-98746445D01*
X157250000Y-98752661D01*
X157277259Y-98854394D01*
X157329920Y-98945606D01*
X157404394Y-99020080D01*
X157495606Y-99072741D01*
X157597339Y-99100000D01*
X157603554Y-99100000D01*
X157020404Y-99683147D01*
X157012471Y-99720906D01*
X156976106Y-99762571D01*
X156897900Y-99819392D01*
X156897891Y-99819399D01*
X156769399Y-99947891D01*
X156769399Y-99947892D01*
X156769397Y-99947894D01*
X156752066Y-99971748D01*
X156662583Y-100094909D01*
X156580083Y-100256825D01*
X156580081Y-100256828D01*
X156523928Y-100429649D01*
X156523928Y-100429652D01*
X156503242Y-100560256D01*
X156495500Y-100609139D01*
X156495500Y-100790861D01*
X156497358Y-100802590D01*
X156523928Y-100970347D01*
X156523928Y-100970350D01*
X156580081Y-101143171D01*
X156580083Y-101143174D01*
X156662583Y-101305090D01*
X156745643Y-101419412D01*
X156762639Y-101442804D01*
X156786119Y-101508610D01*
X156770294Y-101576664D01*
X156736633Y-101614956D01*
X156638452Y-101688455D01*
X156552206Y-101803664D01*
X156552202Y-101803671D01*
X156501908Y-101938517D01*
X156495900Y-101994408D01*
X156495501Y-101998123D01*
X156495500Y-101998135D01*
X156495500Y-103401870D01*
X156495501Y-103401876D01*
X156501908Y-103461483D01*
X156552202Y-103596328D01*
X156552206Y-103596335D01*
X156638452Y-103711544D01*
X156638455Y-103711547D01*
X156753664Y-103797793D01*
X156753671Y-103797797D01*
X156888517Y-103848091D01*
X156888516Y-103848091D01*
X156895444Y-103848835D01*
X156948127Y-103854500D01*
X158351872Y-103854499D01*
X158411483Y-103848091D01*
X158546331Y-103797796D01*
X158661546Y-103711546D01*
X158747796Y-103596331D01*
X158798091Y-103461483D01*
X158804500Y-103401873D01*
X158804499Y-101998128D01*
X158798091Y-101938517D01*
X158786752Y-101908116D01*
X158747797Y-101803671D01*
X158747793Y-101803664D01*
X158661547Y-101688455D01*
X158648803Y-101678915D01*
X158578172Y-101626040D01*
X158563366Y-101614956D01*
X158521496Y-101559022D01*
X158516512Y-101489331D01*
X158537361Y-101442804D01*
X158554357Y-101419412D01*
X158637417Y-101305090D01*
X158719917Y-101143174D01*
X158729988Y-101112180D01*
X158776071Y-100970350D01*
X158776071Y-100970349D01*
X158776072Y-100970346D01*
X158804500Y-100790861D01*
X158804500Y-100609139D01*
X158776072Y-100429654D01*
X158776071Y-100429650D01*
X158776071Y-100429649D01*
X158719918Y-100256828D01*
X158719916Y-100256825D01*
X158718129Y-100253316D01*
X158637417Y-100094910D01*
X158530603Y-99947894D01*
X158402106Y-99819397D01*
X158323889Y-99762569D01*
X158281226Y-99707241D01*
X158277341Y-99680895D01*
X157696447Y-99100000D01*
X157702661Y-99100000D01*
X157804394Y-99072741D01*
X157895606Y-99020080D01*
X157970080Y-98945606D01*
X158022741Y-98854394D01*
X158050000Y-98752661D01*
X158050000Y-98746446D01*
X158624949Y-99321395D01*
X158636986Y-99304831D01*
X158719451Y-99142984D01*
X158775584Y-98970225D01*
X158804000Y-98790821D01*
X158804000Y-98609178D01*
X158775584Y-98429774D01*
X158719450Y-98257012D01*
X158636993Y-98095179D01*
X158636985Y-98095165D01*
X158624950Y-98078603D01*
X158624949Y-98078602D01*
X158050000Y-98653552D01*
X158050000Y-98647339D01*
X158022741Y-98545606D01*
X157970080Y-98454394D01*
X157895606Y-98379920D01*
X157804394Y-98327259D01*
X157702661Y-98300000D01*
X157696447Y-98300000D01*
X158279593Y-97716851D01*
X158287525Y-97679097D01*
X158323892Y-97637429D01*
X158402106Y-97580603D01*
X158530603Y-97452106D01*
X158637417Y-97305090D01*
X158719917Y-97143174D01*
X158763006Y-97010560D01*
X158776071Y-96970350D01*
X158776071Y-96970349D01*
X158776072Y-96970346D01*
X158804500Y-96790861D01*
X158804500Y-96609139D01*
X158776072Y-96429654D01*
X158776071Y-96429650D01*
X158776071Y-96429649D01*
X158719918Y-96256828D01*
X158719916Y-96256825D01*
X158681900Y-96182213D01*
X158637417Y-96094910D01*
X158530603Y-95947894D01*
X158402106Y-95819397D01*
X158375845Y-95800317D01*
X158333180Y-95744988D01*
X158327201Y-95675375D01*
X158359807Y-95613580D01*
X158375846Y-95599682D01*
X158402106Y-95580603D01*
X158530603Y-95452106D01*
X158637417Y-95305090D01*
X158719917Y-95143174D01*
X158761136Y-95016314D01*
X158776071Y-94970350D01*
X158776071Y-94970349D01*
X158776072Y-94970346D01*
X158804500Y-94790861D01*
X158804500Y-94609139D01*
X158776072Y-94429654D01*
X158776071Y-94429650D01*
X158776071Y-94429649D01*
X158719918Y-94256828D01*
X158719916Y-94256825D01*
X158698363Y-94214523D01*
X158637417Y-94094910D01*
X158530603Y-93947894D01*
X158402106Y-93819397D01*
X158255090Y-93712583D01*
X158093174Y-93630083D01*
X158093171Y-93630081D01*
X157920348Y-93573928D01*
X157800689Y-93554976D01*
X157740861Y-93545500D01*
X157559139Y-93545500D01*
X157499310Y-93554976D01*
X157379652Y-93573928D01*
X157379649Y-93573928D01*
X157206828Y-93630081D01*
X157206825Y-93630083D01*
X157044909Y-93712583D01*
X156961030Y-93773525D01*
X156897894Y-93819397D01*
X156897892Y-93819399D01*
X156897891Y-93819399D01*
X156769399Y-93947891D01*
X156769399Y-93947892D01*
X156769397Y-93947894D01*
X156749033Y-93975923D01*
X156662583Y-94094909D01*
X156580083Y-94256825D01*
X156580081Y-94256828D01*
X156523928Y-94429649D01*
X156523928Y-94429652D01*
X156521715Y-94443623D01*
X156495500Y-94609139D01*
X156495500Y-94790861D01*
X156497797Y-94805367D01*
X156488844Y-94874659D01*
X156443849Y-94928111D01*
X156377098Y-94948752D01*
X156375325Y-94948765D01*
X156114575Y-94948765D01*
X156062214Y-94935650D01*
X156061857Y-94936512D01*
X156056230Y-94934181D01*
X155919648Y-94877607D01*
X155919642Y-94877605D01*
X155774655Y-94848765D01*
X155774653Y-94848765D01*
X155626817Y-94848765D01*
X155626815Y-94848765D01*
X155481827Y-94877605D01*
X155481817Y-94877608D01*
X155345246Y-94934177D01*
X155345233Y-94934184D01*
X155222319Y-95016313D01*
X155222315Y-95016316D01*
X155117786Y-95120845D01*
X155117783Y-95120849D01*
X155035654Y-95243763D01*
X155035647Y-95243776D01*
X154979078Y-95380347D01*
X154979075Y-95380357D01*
X154950235Y-95525344D01*
X154950235Y-95525347D01*
X154950235Y-95673183D01*
X154950235Y-95673185D01*
X154950234Y-95673185D01*
X150150500Y-95673185D01*
X150150500Y-95126592D01*
X150170185Y-95059553D01*
X150222989Y-95013798D01*
X150234626Y-95009398D01*
X150237239Y-95008315D01*
X150237242Y-95008315D01*
X150373824Y-94951741D01*
X150496745Y-94869608D01*
X150601280Y-94765073D01*
X150683413Y-94642152D01*
X150739987Y-94505570D01*
X150755088Y-94429654D01*
X150768829Y-94360577D01*
X150768829Y-94212736D01*
X150739988Y-94067749D01*
X150739987Y-94067748D01*
X150739987Y-94067744D01*
X150690343Y-93947892D01*
X150683416Y-93931168D01*
X150683409Y-93931155D01*
X150601280Y-93808241D01*
X150601277Y-93808237D01*
X150496748Y-93703708D01*
X150496744Y-93703705D01*
X150373830Y-93621576D01*
X150373820Y-93621571D01*
X150282838Y-93583885D01*
X150228435Y-93540044D01*
X150215730Y-93516776D01*
X150165087Y-93394511D01*
X150165080Y-93394498D01*
X150082951Y-93271584D01*
X150082948Y-93271580D01*
X149978419Y-93167051D01*
X149978415Y-93167048D01*
X149855501Y-93084919D01*
X149855488Y-93084912D01*
X149718917Y-93028343D01*
X149718907Y-93028340D01*
X149573920Y-92999500D01*
X149573918Y-92999500D01*
X149426082Y-92999500D01*
X149426080Y-92999500D01*
X149281092Y-93028340D01*
X149281082Y-93028343D01*
X149144511Y-93084912D01*
X149144498Y-93084919D01*
X149021584Y-93167048D01*
X149021580Y-93167051D01*
X148917051Y-93271580D01*
X148917048Y-93271584D01*
X148834919Y-93394498D01*
X148834912Y-93394511D01*
X148776011Y-93536714D01*
X148775149Y-93536357D01*
X148747398Y-93582655D01*
X148244722Y-94085331D01*
X148244717Y-94085337D01*
X148217575Y-94125962D01*
X148217573Y-94125965D01*
X148199933Y-94152364D01*
X148173534Y-94191873D01*
X148124499Y-94310255D01*
X148124497Y-94310261D01*
X148099500Y-94435928D01*
X148099500Y-95069534D01*
X148079815Y-95136573D01*
X148063181Y-95157215D01*
X146434771Y-96785624D01*
X146434770Y-96785625D01*
X146363578Y-96892173D01*
X146314543Y-97010554D01*
X146314541Y-97010560D01*
X146289544Y-97136227D01*
X146289544Y-100033748D01*
X146276566Y-100085559D01*
X146277556Y-100085969D01*
X146218652Y-100228175D01*
X146218649Y-100228185D01*
X146189809Y-100373172D01*
X146189809Y-100373175D01*
X146189809Y-100521011D01*
X146189809Y-100521013D01*
X146189808Y-100521013D01*
X146218649Y-100666000D01*
X146218652Y-100666010D01*
X146275221Y-100802581D01*
X146275228Y-100802594D01*
X146357357Y-100925508D01*
X146357360Y-100925512D01*
X146461889Y-101030041D01*
X146461893Y-101030044D01*
X146556846Y-101093490D01*
X146601651Y-101147102D01*
X146610358Y-101216427D01*
X146580204Y-101279455D01*
X146520761Y-101316174D01*
X146512149Y-101318209D01*
X146472133Y-101326169D01*
X146472126Y-101326171D01*
X146335555Y-101382740D01*
X146335542Y-101382747D01*
X146212628Y-101464876D01*
X146212624Y-101464879D01*
X146108095Y-101569408D01*
X146108092Y-101569412D01*
X146025963Y-101692326D01*
X146025956Y-101692339D01*
X145969387Y-101828910D01*
X145969384Y-101828920D01*
X145940544Y-101973907D01*
X145940544Y-101973910D01*
X145940544Y-102121746D01*
X145940544Y-102121748D01*
X145940543Y-102121748D01*
X145969384Y-102266735D01*
X145969387Y-102266745D01*
X146028291Y-102408952D01*
X146027427Y-102409309D01*
X146040544Y-102461668D01*
X146040544Y-109767020D01*
X146020859Y-109834059D01*
X146004225Y-109854701D01*
X144924725Y-110934200D01*
X144924724Y-110934201D01*
X144917095Y-110945619D01*
X144881094Y-110999500D01*
X144870098Y-111015957D01*
X144853535Y-111040744D01*
X144853533Y-111040747D01*
X144804499Y-111159127D01*
X144804497Y-111159133D01*
X144779500Y-111284800D01*
X144779500Y-111290382D01*
X144759815Y-111357421D01*
X144725408Y-111391099D01*
X144726125Y-111392085D01*
X144550213Y-111519890D01*
X144399890Y-111670213D01*
X144274951Y-111842179D01*
X144178444Y-112031585D01*
X144112753Y-112233760D01*
X144079500Y-112443713D01*
X142920500Y-112443713D01*
X142887246Y-112233757D01*
X142821557Y-112031588D01*
X142725051Y-111842184D01*
X142725049Y-111842181D01*
X142725048Y-111842179D01*
X142600109Y-111670213D01*
X142449786Y-111519890D01*
X142277820Y-111394951D01*
X142088414Y-111298444D01*
X142088413Y-111298443D01*
X142088412Y-111298443D01*
X141886243Y-111232754D01*
X141886241Y-111232753D01*
X141886240Y-111232753D01*
X141716758Y-111205910D01*
X141676287Y-111199500D01*
X141463713Y-111199500D01*
X141423242Y-111205910D01*
X141253760Y-111232753D01*
X141051585Y-111298444D01*
X140862179Y-111394951D01*
X140690213Y-111519890D01*
X140539890Y-111670213D01*
X140414949Y-111842182D01*
X140410484Y-111850946D01*
X140362509Y-111901742D01*
X140294688Y-111918536D01*
X140228553Y-111895998D01*
X140189516Y-111850946D01*
X140185050Y-111842182D01*
X140060109Y-111670213D01*
X139909786Y-111519890D01*
X139737820Y-111394951D01*
X139548414Y-111298444D01*
X139548413Y-111298443D01*
X139548412Y-111298443D01*
X139346243Y-111232754D01*
X139346241Y-111232753D01*
X139346240Y-111232753D01*
X139176758Y-111205910D01*
X139136287Y-111199500D01*
X138923713Y-111199500D01*
X138883242Y-111205910D01*
X138713760Y-111232753D01*
X138511585Y-111298444D01*
X138322179Y-111394951D01*
X138150213Y-111519890D01*
X137999890Y-111670213D01*
X137874949Y-111842182D01*
X137870484Y-111850946D01*
X137822509Y-111901742D01*
X137754688Y-111918536D01*
X137688553Y-111895998D01*
X137649516Y-111850946D01*
X137645050Y-111842182D01*
X137520109Y-111670213D01*
X137369786Y-111519890D01*
X137193875Y-111392085D01*
X137194851Y-111390740D01*
X137152834Y-111344295D01*
X137140500Y-111290382D01*
X137140500Y-110989680D01*
X137160185Y-110922641D01*
X137176819Y-110901999D01*
X141155271Y-106923547D01*
X141155276Y-106923542D01*
X141226465Y-106816999D01*
X141275501Y-106698616D01*
X141300500Y-106572941D01*
X141300500Y-105470808D01*
X141320185Y-105403769D01*
X141336819Y-105383127D01*
X142955271Y-103764675D01*
X142955276Y-103764670D01*
X142990870Y-103711398D01*
X143026464Y-103658129D01*
X143026465Y-103658127D01*
X143075501Y-103539744D01*
X143083802Y-103498013D01*
X143100500Y-103414071D01*
X143100500Y-102706257D01*
X143120185Y-102639218D01*
X143172989Y-102593463D01*
X143177048Y-102591696D01*
X143246533Y-102562915D01*
X143246536Y-102562913D01*
X143246539Y-102562912D01*
X143369460Y-102480779D01*
X143473995Y-102376244D01*
X143556128Y-102253323D01*
X143612702Y-102116741D01*
X143636296Y-101998128D01*
X143641544Y-101971748D01*
X143641544Y-101823907D01*
X143612703Y-101678920D01*
X143612702Y-101678919D01*
X143612702Y-101678915D01*
X143592990Y-101631325D01*
X143556131Y-101542339D01*
X143556124Y-101542326D01*
X143473995Y-101419412D01*
X143473992Y-101419408D01*
X143369463Y-101314879D01*
X143369459Y-101314876D01*
X143246545Y-101232747D01*
X143246532Y-101232740D01*
X143109961Y-101176171D01*
X143109951Y-101176168D01*
X142964964Y-101147328D01*
X142964962Y-101147328D01*
X142817126Y-101147328D01*
X142817124Y-101147328D01*
X142672136Y-101176168D01*
X142672126Y-101176171D01*
X142535555Y-101232740D01*
X142535544Y-101232746D01*
X142493390Y-101260913D01*
X142483689Y-101263950D01*
X142476011Y-101270604D01*
X142450913Y-101274212D01*
X142426713Y-101281790D01*
X142416913Y-101279101D01*
X142406853Y-101280548D01*
X142383784Y-101270013D01*
X142359333Y-101263305D01*
X142352542Y-101255745D01*
X142343297Y-101251523D01*
X142329586Y-101230188D01*
X142312643Y-101211326D01*
X142310011Y-101199729D01*
X142305523Y-101192745D01*
X142300500Y-101157810D01*
X142300500Y-101112139D01*
X142320185Y-101045100D01*
X142372989Y-100999345D01*
X142377048Y-100997578D01*
X142455488Y-100965087D01*
X142455488Y-100965086D01*
X142455495Y-100965084D01*
X142578416Y-100882951D01*
X142682951Y-100778416D01*
X142765084Y-100655495D01*
X142776436Y-100628090D01*
X142784285Y-100609139D01*
X142821658Y-100518913D01*
X142839413Y-100429654D01*
X142850500Y-100373920D01*
X142850500Y-100226079D01*
X142821659Y-100081092D01*
X142821658Y-100081091D01*
X142821658Y-100081087D01*
X142804391Y-100039400D01*
X142765087Y-99944511D01*
X142765080Y-99944498D01*
X142682951Y-99821584D01*
X142682948Y-99821580D01*
X142578419Y-99717051D01*
X142578415Y-99717048D01*
X142455501Y-99634919D01*
X142455488Y-99634912D01*
X142318917Y-99578343D01*
X142318907Y-99578340D01*
X142173920Y-99549500D01*
X142173918Y-99549500D01*
X142026082Y-99549500D01*
X142026080Y-99549500D01*
X141881092Y-99578340D01*
X141881082Y-99578343D01*
X141744511Y-99634912D01*
X141744498Y-99634919D01*
X141621584Y-99717048D01*
X141621580Y-99717051D01*
X141517051Y-99821580D01*
X141517048Y-99821584D01*
X141434919Y-99944498D01*
X141434914Y-99944507D01*
X141376011Y-100086714D01*
X141375148Y-100086356D01*
X141347398Y-100132655D01*
X141144724Y-100335329D01*
X141081699Y-100429653D01*
X141081699Y-100429654D01*
X141073535Y-100441873D01*
X141073534Y-100441875D01*
X141024499Y-100560255D01*
X141024497Y-100560261D01*
X140999500Y-100685928D01*
X140999500Y-102729191D01*
X140979815Y-102796230D01*
X140963181Y-102816872D01*
X139332654Y-104447398D01*
X139286357Y-104475149D01*
X139286714Y-104476011D01*
X139144507Y-104534914D01*
X139144498Y-104534919D01*
X139021584Y-104617048D01*
X139021580Y-104617051D01*
X138917051Y-104721580D01*
X138917048Y-104721584D01*
X138834919Y-104844498D01*
X138834912Y-104844511D01*
X138778343Y-104981082D01*
X138778340Y-104981092D01*
X138749500Y-105126079D01*
X138749500Y-105126082D01*
X138749500Y-105273918D01*
X138749500Y-105273920D01*
X138749499Y-105273920D01*
X138778340Y-105418907D01*
X138778343Y-105418917D01*
X138834912Y-105555488D01*
X138834919Y-105555501D01*
X138917048Y-105678415D01*
X138917051Y-105678419D01*
X139021580Y-105782948D01*
X139021584Y-105782951D01*
X139144498Y-105865080D01*
X139144511Y-105865087D01*
X139226943Y-105899231D01*
X139281087Y-105921658D01*
X139281091Y-105921658D01*
X139281092Y-105921659D01*
X139426079Y-105950500D01*
X139426082Y-105950500D01*
X139573920Y-105950500D01*
X139684647Y-105928474D01*
X139718913Y-105921658D01*
X139828048Y-105876452D01*
X139860675Y-105872945D01*
X139893147Y-105868276D01*
X139895234Y-105869229D01*
X139897517Y-105868984D01*
X139926860Y-105883672D01*
X139956703Y-105897301D01*
X139957943Y-105899231D01*
X139959996Y-105900259D01*
X139976736Y-105928474D01*
X139994477Y-105956079D01*
X139994912Y-105959108D01*
X139995648Y-105960348D01*
X139999500Y-105991014D01*
X139999500Y-106188063D01*
X139979815Y-106255102D01*
X139963181Y-106275744D01*
X135984727Y-110254197D01*
X135984726Y-110254198D01*
X135913534Y-110360746D01*
X135864499Y-110479127D01*
X135864497Y-110479133D01*
X135839500Y-110604800D01*
X135839500Y-111290382D01*
X135819815Y-111357421D01*
X135785408Y-111391099D01*
X135786125Y-111392085D01*
X135610215Y-111519889D01*
X135496673Y-111633431D01*
X135435350Y-111666915D01*
X135365658Y-111661931D01*
X135309725Y-111620059D01*
X135292810Y-111589082D01*
X135243797Y-111457671D01*
X135243793Y-111457664D01*
X135157547Y-111342455D01*
X135157544Y-111342452D01*
X135042335Y-111256206D01*
X135042328Y-111256202D01*
X134907482Y-111205908D01*
X134907483Y-111205908D01*
X134847883Y-111199501D01*
X134847881Y-111199500D01*
X134847873Y-111199500D01*
X134847864Y-111199500D01*
X133052129Y-111199500D01*
X133052123Y-111199501D01*
X132992516Y-111205908D01*
X132857671Y-111256202D01*
X132857664Y-111256206D01*
X132742455Y-111342452D01*
X132742452Y-111342455D01*
X132656206Y-111457664D01*
X132656202Y-111457671D01*
X132605908Y-111592517D01*
X132599501Y-111652116D01*
X132599501Y-111652123D01*
X132599500Y-111652135D01*
X130883923Y-111652135D01*
X130811826Y-111527259D01*
X130811822Y-111527252D01*
X130722716Y-111411126D01*
X130676122Y-111350403D01*
X130676116Y-111350396D01*
X130518503Y-111192783D01*
X130518496Y-111192777D01*
X130341656Y-111057084D01*
X130341654Y-111057083D01*
X130341648Y-111057078D01*
X130148600Y-110945621D01*
X130148596Y-110945619D01*
X129942664Y-110860319D01*
X129942657Y-110860317D01*
X129942655Y-110860316D01*
X129727337Y-110802622D01*
X129727331Y-110802621D01*
X129727326Y-110802620D01*
X129506340Y-110773527D01*
X129506337Y-110773526D01*
X129506331Y-110773526D01*
X129283417Y-110773526D01*
X129283411Y-110773526D01*
X129283407Y-110773527D01*
X129062421Y-110802620D01*
X129062414Y-110802621D01*
X129062411Y-110802622D01*
X129016380Y-110814956D01*
X128847093Y-110860316D01*
X128847083Y-110860319D01*
X128641151Y-110945619D01*
X128641147Y-110945621D01*
X128448100Y-111057078D01*
X128448091Y-111057084D01*
X128271251Y-111192777D01*
X128271244Y-111192783D01*
X128113631Y-111350396D01*
X128113625Y-111350403D01*
X127977932Y-111527243D01*
X127977926Y-111527252D01*
X127866469Y-111720299D01*
X127866467Y-111720303D01*
X127781167Y-111926235D01*
X127781164Y-111926245D01*
X127723471Y-112141560D01*
X127723468Y-112141573D01*
X127695189Y-112356379D01*
X127694374Y-112362568D01*
X127020500Y-112362568D01*
X127020500Y-107467828D01*
X127946182Y-107467828D01*
X128749056Y-107467828D01*
X128731839Y-107477768D01*
X128675984Y-107533623D01*
X128636488Y-107602032D01*
X128616044Y-107678332D01*
X128616044Y-107757324D01*
X128636488Y-107833624D01*
X128675984Y-107902033D01*
X128731839Y-107957888D01*
X128749056Y-107967828D01*
X127946182Y-107967828D01*
X127954474Y-108009518D01*
X127954474Y-108009520D01*
X128029851Y-108191499D01*
X128029858Y-108191512D01*
X128139292Y-108355290D01*
X128139295Y-108355294D01*
X128278577Y-108494576D01*
X128278581Y-108494579D01*
X128442359Y-108604013D01*
X128442372Y-108604020D01*
X128624350Y-108679397D01*
X128624362Y-108679400D01*
X128817548Y-108717827D01*
X128817552Y-108717828D01*
X129266044Y-108717828D01*
X129266044Y-108017828D01*
X129766044Y-108017828D01*
X129766044Y-108717828D01*
X130214536Y-108717828D01*
X130214539Y-108717827D01*
X130407725Y-108679400D01*
X130407737Y-108679397D01*
X130589715Y-108604020D01*
X130589728Y-108604013D01*
X130753506Y-108494579D01*
X130753510Y-108494576D01*
X130892792Y-108355294D01*
X130892795Y-108355290D01*
X131002229Y-108191512D01*
X131002236Y-108191499D01*
X131077613Y-108009520D01*
X131077613Y-108009518D01*
X131085906Y-107967828D01*
X130283032Y-107967828D01*
X130300249Y-107957888D01*
X130356104Y-107902033D01*
X130395600Y-107833624D01*
X130416044Y-107757324D01*
X130416044Y-107678332D01*
X130395600Y-107602032D01*
X130356104Y-107533623D01*
X130300249Y-107477768D01*
X130283032Y-107467828D01*
X131085906Y-107467828D01*
X132146182Y-107467828D01*
X132949056Y-107467828D01*
X132931839Y-107477768D01*
X132875984Y-107533623D01*
X132836488Y-107602032D01*
X132816044Y-107678332D01*
X132816044Y-107757324D01*
X132836488Y-107833624D01*
X132875984Y-107902033D01*
X132931839Y-107957888D01*
X132949056Y-107967828D01*
X132146182Y-107967828D01*
X132154474Y-108009518D01*
X132154474Y-108009520D01*
X132229851Y-108191499D01*
X132229858Y-108191512D01*
X132339292Y-108355290D01*
X132339295Y-108355294D01*
X132478577Y-108494576D01*
X132478581Y-108494579D01*
X132642359Y-108604013D01*
X132642372Y-108604020D01*
X132824350Y-108679397D01*
X132824362Y-108679400D01*
X133017548Y-108717827D01*
X133017552Y-108717828D01*
X133266044Y-108717828D01*
X133266044Y-108017828D01*
X133766044Y-108017828D01*
X133766044Y-108717828D01*
X134014536Y-108717828D01*
X134014539Y-108717827D01*
X134207725Y-108679400D01*
X134207737Y-108679397D01*
X134389715Y-108604020D01*
X134389728Y-108604013D01*
X134553506Y-108494579D01*
X134553510Y-108494576D01*
X134692792Y-108355294D01*
X134692795Y-108355290D01*
X134802229Y-108191512D01*
X134802236Y-108191499D01*
X134877613Y-108009520D01*
X134877613Y-108009518D01*
X134885906Y-107967828D01*
X134083032Y-107967828D01*
X134100249Y-107957888D01*
X134156104Y-107902033D01*
X134195600Y-107833624D01*
X134216044Y-107757324D01*
X134216044Y-107678332D01*
X134195600Y-107602032D01*
X134156104Y-107533623D01*
X134100249Y-107477768D01*
X134083032Y-107467828D01*
X134885906Y-107467828D01*
X134877613Y-107426137D01*
X134877613Y-107426135D01*
X134802236Y-107244156D01*
X134802229Y-107244143D01*
X134692795Y-107080365D01*
X134692792Y-107080361D01*
X134553510Y-106941079D01*
X134553506Y-106941076D01*
X134389728Y-106831642D01*
X134389715Y-106831635D01*
X134207737Y-106756258D01*
X134207725Y-106756255D01*
X134014539Y-106717828D01*
X133766044Y-106717828D01*
X133766044Y-107417828D01*
X133266044Y-107417828D01*
X133266044Y-106717828D01*
X133017548Y-106717828D01*
X132824362Y-106756255D01*
X132824350Y-106756258D01*
X132642372Y-106831635D01*
X132642359Y-106831642D01*
X132478581Y-106941076D01*
X132478577Y-106941079D01*
X132339295Y-107080361D01*
X132339292Y-107080365D01*
X132229858Y-107244143D01*
X132229851Y-107244156D01*
X132154474Y-107426135D01*
X132154474Y-107426137D01*
X132146182Y-107467828D01*
X131085906Y-107467828D01*
X131077613Y-107426137D01*
X131077613Y-107426135D01*
X131002236Y-107244156D01*
X131002229Y-107244143D01*
X130892795Y-107080365D01*
X130892792Y-107080361D01*
X130753510Y-106941079D01*
X130753506Y-106941076D01*
X130589728Y-106831642D01*
X130589715Y-106831635D01*
X130407737Y-106756258D01*
X130407725Y-106756255D01*
X130214539Y-106717828D01*
X129766044Y-106717828D01*
X129766044Y-107417828D01*
X129266044Y-107417828D01*
X129266044Y-106717828D01*
X128817548Y-106717828D01*
X128624362Y-106756255D01*
X128624350Y-106756258D01*
X128442372Y-106831635D01*
X128442359Y-106831642D01*
X128278581Y-106941076D01*
X128278577Y-106941079D01*
X128139295Y-107080361D01*
X128139292Y-107080365D01*
X128029858Y-107244143D01*
X128029851Y-107244156D01*
X127954474Y-107426135D01*
X127954474Y-107426137D01*
X127946182Y-107467828D01*
X127020500Y-107467828D01*
X127020500Y-102168981D01*
X131190544Y-102168981D01*
X131190544Y-104826674D01*
X131221305Y-104981317D01*
X131221308Y-104981329D01*
X131281646Y-105127000D01*
X131281653Y-105127013D01*
X131369254Y-105258116D01*
X131369257Y-105258120D01*
X132330751Y-106219614D01*
X132330755Y-106219617D01*
X132461858Y-106307218D01*
X132461862Y-106307220D01*
X132461865Y-106307222D01*
X132607547Y-106367566D01*
X132762197Y-106398327D01*
X132762201Y-106398328D01*
X132762202Y-106398328D01*
X132919888Y-106398328D01*
X132919889Y-106398327D01*
X133074542Y-106367566D01*
X133220223Y-106307222D01*
X133351334Y-106219617D01*
X133462833Y-106108118D01*
X133550438Y-105977007D01*
X133610782Y-105831326D01*
X133641544Y-105676671D01*
X133641544Y-105518986D01*
X133610782Y-105364331D01*
X133550438Y-105218649D01*
X133550436Y-105218646D01*
X133550434Y-105218642D01*
X133462833Y-105087539D01*
X133462830Y-105087535D01*
X132827863Y-104452568D01*
X132794378Y-104391245D01*
X132791544Y-104364887D01*
X132791544Y-103746748D01*
X134557723Y-103746748D01*
X134586564Y-103891735D01*
X134586567Y-103891745D01*
X134643136Y-104028316D01*
X134643143Y-104028329D01*
X134725272Y-104151243D01*
X134725275Y-104151247D01*
X134829804Y-104255776D01*
X134829812Y-104255782D01*
X134952718Y-104337905D01*
X134952721Y-104337906D01*
X134952729Y-104337912D01*
X134952735Y-104337914D01*
X134952736Y-104337915D01*
X134999365Y-104357229D01*
X135053769Y-104401069D01*
X135066474Y-104424337D01*
X135124925Y-104565452D01*
X135124930Y-104565461D01*
X135207059Y-104688375D01*
X135207062Y-104688379D01*
X135311591Y-104792908D01*
X135311595Y-104792911D01*
X135434509Y-104875040D01*
X135434522Y-104875047D01*
X135571093Y-104931616D01*
X135571098Y-104931618D01*
X135571102Y-104931618D01*
X135571103Y-104931619D01*
X135716090Y-104960460D01*
X135716093Y-104960460D01*
X135863931Y-104960460D01*
X135961473Y-104941056D01*
X136008924Y-104931618D01*
X136145506Y-104875044D01*
X136268427Y-104792911D01*
X136372962Y-104688376D01*
X136384364Y-104671310D01*
X136399781Y-104652524D01*
X137076877Y-103975428D01*
X137123175Y-103947680D01*
X137122818Y-103946817D01*
X137265021Y-103887915D01*
X137265021Y-103887914D01*
X137265028Y-103887912D01*
X137387949Y-103805779D01*
X137492484Y-103701244D01*
X137574617Y-103578323D01*
X137631191Y-103441741D01*
X137654165Y-103326247D01*
X137660033Y-103296748D01*
X137660033Y-103148907D01*
X137631192Y-103003920D01*
X137631191Y-103003919D01*
X137631191Y-103003915D01*
X137609344Y-102951171D01*
X137574619Y-102867337D01*
X137574618Y-102867335D01*
X137528972Y-102799021D01*
X137508094Y-102732343D01*
X137510456Y-102705940D01*
X137522232Y-102646746D01*
X137522232Y-102498910D01*
X137522232Y-102498907D01*
X137493391Y-102353920D01*
X137493390Y-102353919D01*
X137493390Y-102353915D01*
X137457283Y-102266745D01*
X137436819Y-102217339D01*
X137436812Y-102217326D01*
X137354683Y-102094412D01*
X137354680Y-102094408D01*
X137250151Y-101989879D01*
X137250147Y-101989876D01*
X137127233Y-101907747D01*
X137127220Y-101907740D01*
X136990649Y-101851171D01*
X136990639Y-101851168D01*
X136845652Y-101822328D01*
X136845650Y-101822328D01*
X136697814Y-101822328D01*
X136697812Y-101822328D01*
X136552824Y-101851168D01*
X136552814Y-101851171D01*
X136416243Y-101907740D01*
X136416230Y-101907747D01*
X136293316Y-101989876D01*
X136293312Y-101989879D01*
X136188783Y-102094408D01*
X136188780Y-102094412D01*
X136106651Y-102217326D01*
X136106646Y-102217335D01*
X136047743Y-102359542D01*
X136046881Y-102359185D01*
X136019130Y-102405482D01*
X135529218Y-102895394D01*
X135467895Y-102928879D01*
X135417345Y-102929330D01*
X135382144Y-102922328D01*
X135382142Y-102922328D01*
X135234306Y-102922328D01*
X135234304Y-102922328D01*
X135089316Y-102951168D01*
X135089306Y-102951171D01*
X134952735Y-103007740D01*
X134952722Y-103007747D01*
X134829808Y-103089876D01*
X134829804Y-103089879D01*
X134725275Y-103194408D01*
X134725272Y-103194412D01*
X134643143Y-103317326D01*
X134643136Y-103317339D01*
X134586567Y-103453910D01*
X134586564Y-103453920D01*
X134557724Y-103598907D01*
X134557724Y-103598910D01*
X134557724Y-103746746D01*
X134557724Y-103746748D01*
X134557723Y-103746748D01*
X132791544Y-103746748D01*
X132791544Y-102630768D01*
X132811229Y-102563729D01*
X132827863Y-102543087D01*
X133462830Y-101908120D01*
X133462833Y-101908117D01*
X133550438Y-101777007D01*
X133610782Y-101631325D01*
X133641544Y-101476670D01*
X133641544Y-101318985D01*
X133610782Y-101164330D01*
X133550438Y-101018649D01*
X133550436Y-101018646D01*
X133550434Y-101018642D01*
X133462833Y-100887537D01*
X133351334Y-100776038D01*
X133220229Y-100688437D01*
X133220219Y-100688432D01*
X133074542Y-100628090D01*
X133074534Y-100628088D01*
X132919891Y-100597328D01*
X132919887Y-100597328D01*
X132762202Y-100597328D01*
X132762197Y-100597328D01*
X132607554Y-100628088D01*
X132607546Y-100628090D01*
X132461868Y-100688432D01*
X132461858Y-100688437D01*
X132330755Y-100776038D01*
X132330751Y-100776041D01*
X131687386Y-101419408D01*
X131480755Y-101626039D01*
X131427884Y-101678910D01*
X131369253Y-101737540D01*
X131281653Y-101868642D01*
X131281646Y-101868655D01*
X131221308Y-102014326D01*
X131221305Y-102014338D01*
X131190544Y-102168981D01*
X127020500Y-102168981D01*
X127020500Y-98827828D01*
X127946182Y-98827828D01*
X128749056Y-98827828D01*
X128731839Y-98837768D01*
X128675984Y-98893623D01*
X128636488Y-98962032D01*
X128616044Y-99038332D01*
X128616044Y-99117324D01*
X128636488Y-99193624D01*
X128675984Y-99262033D01*
X128731839Y-99317888D01*
X128749056Y-99327828D01*
X127946182Y-99327828D01*
X127954474Y-99369518D01*
X127954474Y-99369520D01*
X128029851Y-99551499D01*
X128029858Y-99551512D01*
X128139292Y-99715290D01*
X128139295Y-99715294D01*
X128278577Y-99854576D01*
X128278581Y-99854579D01*
X128442359Y-99964013D01*
X128442372Y-99964020D01*
X128624350Y-100039397D01*
X128624362Y-100039400D01*
X128817548Y-100077827D01*
X128817552Y-100077828D01*
X129266044Y-100077828D01*
X129266044Y-99377828D01*
X129766044Y-99377828D01*
X129766044Y-100077828D01*
X130214536Y-100077828D01*
X130214539Y-100077827D01*
X130407725Y-100039400D01*
X130407737Y-100039397D01*
X130589715Y-99964020D01*
X130589728Y-99964013D01*
X130753506Y-99854579D01*
X130753510Y-99854576D01*
X130892792Y-99715294D01*
X130892795Y-99715290D01*
X131002229Y-99551512D01*
X131002236Y-99551499D01*
X131077613Y-99369520D01*
X131077613Y-99369518D01*
X131085906Y-99327828D01*
X130283032Y-99327828D01*
X130300249Y-99317888D01*
X130356104Y-99262033D01*
X130395600Y-99193624D01*
X130416044Y-99117324D01*
X130416044Y-99038332D01*
X130395600Y-98962032D01*
X130356104Y-98893623D01*
X130300249Y-98837768D01*
X130283032Y-98827828D01*
X131085906Y-98827828D01*
X132146182Y-98827828D01*
X132949056Y-98827828D01*
X132931839Y-98837768D01*
X132875984Y-98893623D01*
X132836488Y-98962032D01*
X132816044Y-99038332D01*
X132816044Y-99117324D01*
X132836488Y-99193624D01*
X132875984Y-99262033D01*
X132931839Y-99317888D01*
X132949056Y-99327828D01*
X132146182Y-99327828D01*
X132154474Y-99369518D01*
X132154474Y-99369520D01*
X132229851Y-99551499D01*
X132229858Y-99551512D01*
X132339292Y-99715290D01*
X132339295Y-99715294D01*
X132478577Y-99854576D01*
X132478581Y-99854579D01*
X132642359Y-99964013D01*
X132642372Y-99964020D01*
X132824350Y-100039397D01*
X132824362Y-100039400D01*
X133017548Y-100077827D01*
X133017552Y-100077828D01*
X133266044Y-100077828D01*
X133266044Y-99377828D01*
X133766044Y-99377828D01*
X133766044Y-100077828D01*
X134014536Y-100077828D01*
X134014539Y-100077827D01*
X134207725Y-100039400D01*
X134207737Y-100039397D01*
X134389715Y-99964020D01*
X134389728Y-99964013D01*
X134553506Y-99854579D01*
X134553510Y-99854576D01*
X134692792Y-99715294D01*
X134692795Y-99715290D01*
X134802229Y-99551512D01*
X134802236Y-99551499D01*
X134877613Y-99369520D01*
X134877613Y-99369518D01*
X134885906Y-99327828D01*
X134083032Y-99327828D01*
X134100249Y-99317888D01*
X134156104Y-99262033D01*
X134195600Y-99193624D01*
X134216044Y-99117324D01*
X134216044Y-99038332D01*
X134195600Y-98962032D01*
X134156104Y-98893623D01*
X134100249Y-98837768D01*
X134083032Y-98827828D01*
X134885906Y-98827828D01*
X134877613Y-98786137D01*
X134877613Y-98786135D01*
X134802236Y-98604156D01*
X134802229Y-98604143D01*
X134692795Y-98440365D01*
X134692792Y-98440361D01*
X134553510Y-98301079D01*
X134553506Y-98301076D01*
X134389728Y-98191642D01*
X134389715Y-98191635D01*
X134207737Y-98116258D01*
X134207725Y-98116255D01*
X134014539Y-98077828D01*
X133766044Y-98077828D01*
X133766044Y-98777828D01*
X133266044Y-98777828D01*
X133266044Y-98077828D01*
X133017548Y-98077828D01*
X132824362Y-98116255D01*
X132824350Y-98116258D01*
X132642372Y-98191635D01*
X132642359Y-98191642D01*
X132478581Y-98301076D01*
X132478577Y-98301079D01*
X132339295Y-98440361D01*
X132339292Y-98440365D01*
X132229858Y-98604143D01*
X132229851Y-98604156D01*
X132154474Y-98786135D01*
X132154474Y-98786137D01*
X132146182Y-98827828D01*
X131085906Y-98827828D01*
X131077613Y-98786137D01*
X131077613Y-98786135D01*
X131002236Y-98604156D01*
X131002229Y-98604143D01*
X130892795Y-98440365D01*
X130892792Y-98440361D01*
X130753510Y-98301079D01*
X130753506Y-98301076D01*
X130589728Y-98191642D01*
X130589715Y-98191635D01*
X130407737Y-98116258D01*
X130407725Y-98116255D01*
X130214539Y-98077828D01*
X129766044Y-98077828D01*
X129766044Y-98777828D01*
X129266044Y-98777828D01*
X129266044Y-98077828D01*
X128817548Y-98077828D01*
X128624362Y-98116255D01*
X128624350Y-98116258D01*
X128442372Y-98191635D01*
X128442359Y-98191642D01*
X128278581Y-98301076D01*
X128278577Y-98301079D01*
X128139295Y-98440361D01*
X128139292Y-98440365D01*
X128029858Y-98604143D01*
X128029851Y-98604156D01*
X127954474Y-98786135D01*
X127954474Y-98786137D01*
X127946182Y-98827828D01*
X127020500Y-98827828D01*
X127020500Y-94214516D01*
X127694374Y-94214516D01*
X127694374Y-94437424D01*
X127694375Y-94437440D01*
X127723468Y-94658426D01*
X127723469Y-94658431D01*
X127723470Y-94658437D01*
X127758953Y-94790861D01*
X127781164Y-94873754D01*
X127781167Y-94873764D01*
X127862258Y-95069534D01*
X127866469Y-95079700D01*
X127977926Y-95272748D01*
X127977931Y-95272754D01*
X127977932Y-95272756D01*
X128113625Y-95449596D01*
X128113631Y-95449603D01*
X128271244Y-95607216D01*
X128271251Y-95607222D01*
X128361234Y-95676268D01*
X128448100Y-95742922D01*
X128641148Y-95854379D01*
X128771014Y-95908171D01*
X128800358Y-95920326D01*
X128847093Y-95939684D01*
X129062411Y-95997378D01*
X129283417Y-96026474D01*
X129283424Y-96026474D01*
X129506324Y-96026474D01*
X129506331Y-96026474D01*
X129727337Y-95997378D01*
X129942655Y-95939684D01*
X130148600Y-95854379D01*
X130341648Y-95742922D01*
X130518498Y-95607221D01*
X130676121Y-95449598D01*
X130811822Y-95272748D01*
X130923279Y-95079700D01*
X131008584Y-94873755D01*
X131066278Y-94658437D01*
X131095374Y-94437431D01*
X131095374Y-94214517D01*
X131066278Y-93993511D01*
X131008584Y-93778193D01*
X130923279Y-93572248D01*
X130811822Y-93379200D01*
X130676121Y-93202350D01*
X130676116Y-93202344D01*
X130518503Y-93044731D01*
X130518496Y-93044725D01*
X130341656Y-92909032D01*
X130341654Y-92909031D01*
X130341648Y-92909026D01*
X130148600Y-92797569D01*
X130148596Y-92797567D01*
X129942664Y-92712267D01*
X129942657Y-92712265D01*
X129942655Y-92712264D01*
X129727337Y-92654570D01*
X129727331Y-92654569D01*
X129727326Y-92654568D01*
X129506340Y-92625475D01*
X129506337Y-92625474D01*
X129506331Y-92625474D01*
X129283417Y-92625474D01*
X129283411Y-92625474D01*
X129283407Y-92625475D01*
X129062421Y-92654568D01*
X129062414Y-92654569D01*
X129062411Y-92654570D01*
X128912427Y-92694758D01*
X128847093Y-92712264D01*
X128847083Y-92712267D01*
X128641151Y-92797567D01*
X128641147Y-92797569D01*
X128448100Y-92909026D01*
X128448091Y-92909032D01*
X128271251Y-93044725D01*
X128271244Y-93044731D01*
X128113631Y-93202344D01*
X128113625Y-93202351D01*
X127977932Y-93379191D01*
X127977926Y-93379200D01*
X127866469Y-93572247D01*
X127866467Y-93572251D01*
X127781167Y-93778183D01*
X127781164Y-93778193D01*
X127770124Y-93819397D01*
X127723471Y-93993508D01*
X127723468Y-93993521D01*
X127695189Y-94208327D01*
X127694374Y-94214516D01*
X127020500Y-94214516D01*
X127020500Y-93855149D01*
X127020765Y-93847054D01*
X127036220Y-93611252D01*
X127038334Y-93595200D01*
X127083638Y-93367443D01*
X127087836Y-93351778D01*
X127115059Y-93271580D01*
X127162481Y-93131880D01*
X127168679Y-93116915D01*
X127271393Y-92908632D01*
X127279499Y-92894593D01*
X127408518Y-92701502D01*
X127418375Y-92688657D01*
X127571497Y-92514055D01*
X127582955Y-92502597D01*
X127757557Y-92349475D01*
X127770402Y-92339618D01*
X127963497Y-92210596D01*
X127977532Y-92202493D01*
X128185815Y-92099779D01*
X128200780Y-92093581D01*
X128355661Y-92041006D01*
X128420678Y-92018936D01*
X128436345Y-92014738D01*
X128664100Y-91969434D01*
X128680152Y-91967320D01*
X128915969Y-91951864D01*
X128924050Y-91951600D01*
X128946927Y-91951600D01*
X160423071Y-91951600D01*
X160445933Y-91951600D01*
X160454042Y-91951865D01*
G37*
%TD.AperFunction*%
%TD*%
M02*
