%TF.GenerationSoftware,KiCad,Pcbnew,9.0.5*%
%TF.CreationDate,2025-12-04T20:43:33+00:00*%
%TF.ProjectId,smart_servo,736d6172-745f-4736-9572-766f2e6b6963,rev?*%
%TF.SameCoordinates,Original*%
%TF.FileFunction,Copper,L1,Top*%
%TF.FilePolarity,Positive*%
%FSLAX46Y46*%
G04 Gerber Fmt 4.6, Leading zero omitted, Abs format (unit mm)*
G04 Created by KiCad (PCBNEW 9.0.5) date 2025-12-04 20:43:33*
%MOMM*%
%LPD*%
G01*
G04 APERTURE LIST*
G04 Aperture macros list*
%AMRoundRect*
0 Rectangle with rounded corners*
0 $1 Rounding radius*
0 $2 $3 $4 $5 $6 $7 $8 $9 X,Y pos of 4 corners*
0 Add a 4 corners polygon primitive as box body*
4,1,4,$2,$3,$4,$5,$6,$7,$8,$9,$2,$3,0*
0 Add four circle primitives for the rounded corners*
1,1,$1+$1,$2,$3*
1,1,$1+$1,$4,$5*
1,1,$1+$1,$6,$7*
1,1,$1+$1,$8,$9*
0 Add four rect primitives between the rounded corners*
20,1,$1+$1,$2,$3,$4,$5,0*
20,1,$1+$1,$4,$5,$6,$7,0*
20,1,$1+$1,$6,$7,$8,$9,0*
20,1,$1+$1,$8,$9,$2,$3,0*%
G04 Aperture macros list end*
%TA.AperFunction,SMDPad,CuDef*%
%ADD10RoundRect,0.250000X0.250000X0.475000X-0.250000X0.475000X-0.250000X-0.475000X0.250000X-0.475000X0*%
%TD*%
%TA.AperFunction,ComponentPad*%
%ADD11R,1.308000X1.308000*%
%TD*%
%TA.AperFunction,ComponentPad*%
%ADD12C,1.308000*%
%TD*%
%TA.AperFunction,SMDPad,CuDef*%
%ADD13RoundRect,0.200000X0.200000X0.275000X-0.200000X0.275000X-0.200000X-0.275000X0.200000X-0.275000X0*%
%TD*%
%TA.AperFunction,SMDPad,CuDef*%
%ADD14RoundRect,0.135000X-0.135000X-0.185000X0.135000X-0.185000X0.135000X0.185000X-0.135000X0.185000X0*%
%TD*%
%TA.AperFunction,SMDPad,CuDef*%
%ADD15RoundRect,0.140000X0.140000X0.170000X-0.140000X0.170000X-0.140000X-0.170000X0.140000X-0.170000X0*%
%TD*%
%TA.AperFunction,SMDPad,CuDef*%
%ADD16RoundRect,0.075000X0.225000X-0.615000X0.225000X0.615000X-0.225000X0.615000X-0.225000X-0.615000X0*%
%TD*%
%TA.AperFunction,ComponentPad*%
%ADD17R,1.700000X1.700000*%
%TD*%
%TA.AperFunction,ComponentPad*%
%ADD18C,1.700000*%
%TD*%
%TA.AperFunction,SMDPad,CuDef*%
%ADD19RoundRect,0.140000X-0.140000X-0.170000X0.140000X-0.170000X0.140000X0.170000X-0.140000X0.170000X0*%
%TD*%
%TA.AperFunction,SMDPad,CuDef*%
%ADD20R,1.475000X0.450000*%
%TD*%
%TA.AperFunction,SMDPad,CuDef*%
%ADD21R,1.150000X0.590000*%
%TD*%
%TA.AperFunction,SMDPad,CuDef*%
%ADD22R,1.150000X0.298000*%
%TD*%
%TA.AperFunction,ComponentPad*%
%ADD23O,2.200000X1.000000*%
%TD*%
%TA.AperFunction,ComponentPad*%
%ADD24O,1.800000X1.000000*%
%TD*%
%TA.AperFunction,SMDPad,CuDef*%
%ADD25RoundRect,0.035000X0.335000X0.105000X-0.335000X0.105000X-0.335000X-0.105000X0.335000X-0.105000X0*%
%TD*%
%TA.AperFunction,SMDPad,CuDef*%
%ADD26R,0.815478X1.515478*%
%TD*%
%TA.AperFunction,SMDPad,CuDef*%
%ADD27RoundRect,0.075000X0.615000X0.225000X-0.615000X0.225000X-0.615000X-0.225000X0.615000X-0.225000X0*%
%TD*%
%TA.AperFunction,SMDPad,CuDef*%
%ADD28RoundRect,0.200000X-0.200000X-0.275000X0.200000X-0.275000X0.200000X0.275000X-0.200000X0.275000X0*%
%TD*%
%TA.AperFunction,ViaPad*%
%ADD29C,0.500000*%
%TD*%
%TA.AperFunction,Conductor*%
%ADD30C,0.300000*%
%TD*%
%TA.AperFunction,Conductor*%
%ADD31C,0.400000*%
%TD*%
%TA.AperFunction,Conductor*%
%ADD32C,0.600000*%
%TD*%
G04 APERTURE END LIST*
D10*
%TO.P,C1,1*%
%TO.N,+5V*%
X137991044Y-97997828D03*
%TO.P,C1,2*%
%TO.N,GND*%
X136091044Y-97997828D03*
%TD*%
D11*
%TO.P,J3,1,1*%
%TO.N,/ADC*%
X157650000Y-102700000D03*
D12*
%TO.P,J3,2,2*%
%TO.N,/VREF*%
X157650000Y-100700000D03*
%TO.P,J3,3,3*%
%TO.N,GND*%
X157650000Y-98700000D03*
%TO.P,J3,4,4*%
%TO.N,/OUT2*%
X157650000Y-96700000D03*
%TO.P,J3,5,5*%
%TO.N,/OUT1*%
X157650000Y-94700000D03*
%TD*%
D13*
%TO.P,R1,1*%
%TO.N,GND*%
X133875000Y-97500000D03*
%TO.P,R1,2*%
%TO.N,Net-(J1-CC1)*%
X132225000Y-97500000D03*
%TD*%
D14*
%TO.P,R3,1*%
%TO.N,+3V3*%
X143881044Y-98397828D03*
%TO.P,R3,2*%
%TO.N,/VREF*%
X144901044Y-98397828D03*
%TD*%
D15*
%TO.P,C5,1*%
%TO.N,+3V3*%
X152230000Y-96250000D03*
%TO.P,C5,2*%
%TO.N,GND*%
X151270000Y-96250000D03*
%TD*%
D16*
%TO.P,U1,1*%
%TO.N,/VREF*%
X146341044Y-97927828D03*
%TO.P,U1,2*%
X148241044Y-97927828D03*
%TO.P,U1,3*%
%TO.N,GND*%
X147291044Y-95597828D03*
%TD*%
D10*
%TO.P,C2,1*%
%TO.N,GND*%
X142191044Y-97997828D03*
%TO.P,C2,2*%
%TO.N,+3V3*%
X140291044Y-97997828D03*
%TD*%
D17*
%TO.P,J5,1,Pin_1*%
%TO.N,/PA5*%
X133950000Y-112550000D03*
D18*
%TO.P,J5,2,Pin_2*%
%TO.N,/PB1*%
X136490000Y-112550000D03*
%TO.P,J5,3,Pin_3*%
%TO.N,/SWDIO*%
X139030000Y-112550000D03*
%TO.P,J5,4,Pin_4*%
%TO.N,/SWCLK*%
X141570000Y-112550000D03*
%TD*%
D15*
%TO.P,C3,1*%
%TO.N,GND*%
X153441044Y-103797828D03*
%TO.P,C3,2*%
%TO.N,Net-(IC2-NRST)*%
X152481044Y-103797828D03*
%TD*%
D11*
%TO.P,J2,1,1*%
%TO.N,/I2C_SCL*%
X157650000Y-111900000D03*
D12*
%TO.P,J2,2,2*%
%TO.N,/I2C_SDA*%
X157650000Y-109900000D03*
%TO.P,J2,3,3*%
%TO.N,GND*%
X157650000Y-107900000D03*
%TD*%
D19*
%TO.P,C4,1*%
%TO.N,+5V*%
X153770000Y-96250000D03*
%TO.P,C4,2*%
%TO.N,GND*%
X154730000Y-96250000D03*
%TD*%
D20*
%TO.P,IC2,1,PB8-BOOT0*%
%TO.N,GND*%
X149979044Y-105722828D03*
%TO.P,IC2,2,PF0-OSC_IN*%
%TO.N,/I2C_SCL*%
X149979044Y-105072828D03*
%TO.P,IC2,3,PF1-OSC_OUT*%
%TO.N,/I2C_SDA*%
X149979044Y-104422828D03*
%TO.P,IC2,4,NRST*%
%TO.N,Net-(IC2-NRST)*%
X149979044Y-103772828D03*
%TO.P,IC2,5,VDDA*%
%TO.N,+3V3*%
X149979044Y-103122828D03*
%TO.P,IC2,6,PA0*%
%TO.N,/PA0*%
X149979044Y-102472828D03*
%TO.P,IC2,7,PA1*%
%TO.N,/PA1*%
X149979044Y-101822828D03*
%TO.P,IC2,8,PA2*%
%TO.N,/PA2*%
X149979044Y-101172828D03*
%TO.P,IC2,9,PA3*%
%TO.N,/PA3*%
X149979044Y-100522828D03*
%TO.P,IC2,10,PA4*%
%TO.N,/ADC*%
X149979044Y-99872828D03*
%TO.P,IC2,11,PA5*%
%TO.N,/PA5*%
X144103044Y-99872828D03*
%TO.P,IC2,12,PA6*%
%TO.N,/PWM1*%
X144103044Y-100522828D03*
%TO.P,IC2,13,PA7*%
%TO.N,/PWM2*%
X144103044Y-101172828D03*
%TO.P,IC2,14,PB1*%
%TO.N,/PB1*%
X144103044Y-101822828D03*
%TO.P,IC2,15,VSS*%
%TO.N,GND*%
X144103044Y-102472828D03*
%TO.P,IC2,16,VDD*%
%TO.N,+3V3*%
X144103044Y-103122828D03*
%TO.P,IC2,17,PA9_[PA11]*%
%TO.N,/D-*%
X144103044Y-103772828D03*
%TO.P,IC2,18,PA10_[PA12]*%
%TO.N,/D+*%
X144103044Y-104422828D03*
%TO.P,IC2,19,PA13*%
%TO.N,/SWDIO*%
X144103044Y-105072828D03*
%TO.P,IC2,20,PA14*%
%TO.N,/SWCLK*%
X144103044Y-105722828D03*
%TD*%
D21*
%TO.P,J1,A1B12,GND1*%
%TO.N,GND*%
X134091044Y-100197828D03*
%TO.P,J1,A4B9,VBUS1*%
%TO.N,+5V*%
X134091044Y-100997828D03*
D22*
%TO.P,J1,A5,CC1*%
%TO.N,Net-(J1-CC1)*%
X134091044Y-102147828D03*
%TO.P,J1,A6,DP1*%
%TO.N,/D+*%
X134091044Y-103147828D03*
%TO.P,J1,A7,DN1*%
%TO.N,/D-*%
X134091044Y-103647828D03*
%TO.P,J1,A8,SBU1*%
%TO.N,unconnected-(J1-SBU1-PadA8)*%
X134091044Y-104647828D03*
D21*
%TO.P,J1,B1A12,GND2*%
%TO.N,GND*%
X134091044Y-106597828D03*
%TO.P,J1,B4A9,VBUS2*%
%TO.N,+5V*%
X134091044Y-105797828D03*
D22*
%TO.P,J1,B5,CC2*%
%TO.N,Net-(J1-CC2)*%
X134091044Y-105147828D03*
%TO.P,J1,B6,DP2*%
%TO.N,/D+*%
X134091044Y-104147828D03*
%TO.P,J1,B7,DN2*%
%TO.N,/D-*%
X134091044Y-102647828D03*
%TO.P,J1,B8,SBU2*%
%TO.N,unconnected-(J1-SBU2-PadB8)*%
X134091044Y-101647828D03*
D23*
%TO.P,J1,SH1,SHIELD1*%
%TO.N,GND*%
X129516044Y-99077828D03*
%TO.P,J1,SH2,SHIELD2*%
X129516044Y-107717828D03*
D24*
%TO.P,J1,SH3,SHIELD3*%
X133516044Y-99077828D03*
%TO.P,J1,SH4,SHIELD4*%
X133516044Y-107717828D03*
%TD*%
D25*
%TO.P,U2,1,VM*%
%TO.N,+5V*%
X153661044Y-94750000D03*
%TO.P,U2,2,OUT1*%
%TO.N,/OUT1*%
X153661044Y-94250000D03*
%TO.P,U2,3,OUT2*%
%TO.N,/OUT2*%
X153661044Y-93750000D03*
%TO.P,U2,4,GND*%
%TO.N,GND*%
X153661044Y-93250000D03*
%TO.P,U2,5,IN2*%
%TO.N,/PWM2*%
X151691044Y-93250000D03*
%TO.P,U2,6,IN1*%
%TO.N,/PWM1*%
X151691044Y-93750000D03*
%TO.P,U2,7,~{SLEEP}*%
%TO.N,+3V3*%
X151691044Y-94250000D03*
%TO.P,U2,8,VCC*%
X151691044Y-94750000D03*
D26*
%TO.P,U2,9,EXP*%
%TO.N,GND*%
X152676044Y-94000000D03*
%TD*%
D17*
%TO.P,J4,1,Pin_1*%
%TO.N,/PA0*%
X153050000Y-112550000D03*
D18*
%TO.P,J4,2,Pin_2*%
%TO.N,/PA1*%
X150510000Y-112550000D03*
%TO.P,J4,3,Pin_3*%
%TO.N,/PA2*%
X147970000Y-112550000D03*
%TO.P,J4,4,Pin_4*%
%TO.N,/PA3*%
X145430000Y-112550000D03*
%TD*%
D14*
%TO.P,R4,1*%
%TO.N,+3V3*%
X146540000Y-107350000D03*
%TO.P,R4,2*%
%TO.N,Net-(IC2-NRST)*%
X147560000Y-107350000D03*
%TD*%
D27*
%TO.P,U3,1,GND*%
%TO.N,GND*%
X140406044Y-101947828D03*
%TO.P,U3,2,VOUT*%
%TO.N,+3V3*%
X140406044Y-100047828D03*
%TO.P,U3,3,VIN*%
%TO.N,+5V*%
X138076044Y-100997828D03*
%TD*%
D28*
%TO.P,R2,1*%
%TO.N,Net-(J1-CC2)*%
X136025000Y-106150000D03*
%TO.P,R2,2*%
%TO.N,GND*%
X137675000Y-106150000D03*
%TD*%
D29*
%TO.N,GND*%
X150637098Y-95862902D03*
X135066044Y-96972828D03*
X151391044Y-106497828D03*
X152676044Y-94647828D03*
X155494396Y-96268165D03*
X140391044Y-102997828D03*
X146241044Y-95597828D03*
X142191044Y-96647828D03*
X145541044Y-102247828D03*
X139091044Y-106797828D03*
X154391044Y-103797828D03*
%TO.N,+5V*%
X132841044Y-101397828D03*
X132841044Y-105597828D03*
%TO.N,/D+*%
X135790011Y-104209960D03*
X136909533Y-103222828D03*
%TO.N,/PWM1*%
X150018329Y-94286657D03*
X147540044Y-99897828D03*
%TO.N,/PA2*%
X147291044Y-102472828D03*
%TO.N,/PA5*%
X142100000Y-100300000D03*
X139500000Y-105200000D03*
%TO.N,/PA1*%
X148139572Y-102472828D03*
%TO.N,/PWM2*%
X146940309Y-100447093D03*
X149500000Y-93750000D03*
%TO.N,/D-*%
X135308224Y-103672828D03*
X136771732Y-102572828D03*
%TO.N,/PA0*%
X151591044Y-102847828D03*
%TO.N,/PB1*%
X142891044Y-101897828D03*
%TO.N,/PA3*%
X146691044Y-102047828D03*
%TO.N,/OUT1*%
X155700735Y-95599265D03*
%TD*%
D30*
%TO.N,GND*%
X133875000Y-97500000D02*
X134402172Y-96972828D01*
X151024196Y-96250000D02*
X150637098Y-95862902D01*
X138322828Y-106797828D02*
X139091044Y-106797828D01*
X149979044Y-105722828D02*
X150616044Y-105722828D01*
D31*
X134091044Y-99652828D02*
X133516044Y-99077828D01*
D30*
X152676044Y-93748142D02*
X153174186Y-93250000D01*
X151270000Y-96250000D02*
X151024196Y-96250000D01*
X137675000Y-106150000D02*
X138322828Y-106797828D01*
X140406044Y-101947828D02*
X140406044Y-102982828D01*
X145316044Y-102472828D02*
X145541044Y-102247828D01*
X153441044Y-103797828D02*
X154391044Y-103797828D01*
X134402172Y-96972828D02*
X135066044Y-96972828D01*
X147291044Y-95597828D02*
X146241044Y-95597828D01*
X135066044Y-96972828D02*
X136091044Y-97997828D01*
D31*
X134091044Y-100197828D02*
X134091044Y-99652828D01*
D30*
X155476231Y-96250000D02*
X154730000Y-96250000D01*
X140406044Y-102982828D02*
X140391044Y-102997828D01*
X144103044Y-102472828D02*
X145316044Y-102472828D01*
X150616044Y-105722828D02*
X151391044Y-106497828D01*
X153174186Y-93250000D02*
X153661044Y-93250000D01*
X152676044Y-94000000D02*
X152676044Y-93748142D01*
D31*
X134091044Y-107142828D02*
X133516044Y-107717828D01*
D30*
X155494396Y-96268165D02*
X155476231Y-96250000D01*
X142191044Y-97997828D02*
X142191044Y-96647828D01*
D31*
X134091044Y-106597828D02*
X134091044Y-107142828D01*
D32*
%TO.N,+5V*%
X147750000Y-93850000D02*
X149450000Y-95550000D01*
X152700000Y-97750000D02*
X153770000Y-96680000D01*
X132841044Y-101397828D02*
X133241044Y-100997828D01*
X149450000Y-95550000D02*
X149450000Y-96950000D01*
X132841044Y-105597828D02*
X133041044Y-105797828D01*
X153770000Y-95009956D02*
X153661044Y-94901000D01*
X137991044Y-97997828D02*
X142138872Y-93850000D01*
X138076044Y-98082828D02*
X137991044Y-97997828D01*
X133041044Y-105797828D02*
X134091044Y-105797828D01*
X153770000Y-96680000D02*
X153770000Y-96250000D01*
X150250000Y-97750000D02*
X152700000Y-97750000D01*
X138076044Y-100997828D02*
X138076044Y-98082828D01*
X142138872Y-93850000D02*
X147750000Y-93850000D01*
X153770000Y-96250000D02*
X153770000Y-95009956D01*
X149450000Y-96950000D02*
X150250000Y-97750000D01*
X133241044Y-100997828D02*
X134091044Y-100997828D01*
X134091044Y-100997828D02*
X138076044Y-100997828D01*
D30*
%TO.N,+3V3*%
X152271044Y-95977828D02*
X152271044Y-96208956D01*
X151691044Y-94250000D02*
X151691044Y-94750000D01*
D32*
X141230044Y-99223828D02*
X143055044Y-99223828D01*
D30*
X151691044Y-94750000D02*
X151691044Y-95397828D01*
D32*
X140406044Y-100047828D02*
X141230044Y-99223828D01*
D31*
X143181045Y-103122828D02*
X144103044Y-103122828D01*
D30*
X152271044Y-96208956D02*
X152230000Y-96250000D01*
D31*
X145217544Y-103122828D02*
X144103044Y-103122828D01*
D32*
X140291044Y-99932828D02*
X140406044Y-100047828D01*
D31*
X146540000Y-107350000D02*
X146540000Y-104445284D01*
D32*
X140291044Y-97997828D02*
X140291044Y-99932828D01*
D31*
X140406044Y-100347827D02*
X143181045Y-103122828D01*
X140406044Y-100047828D02*
X140406044Y-100347827D01*
X146540000Y-104445284D02*
X145217544Y-103122828D01*
D30*
X151691044Y-95397828D02*
X152271044Y-95977828D01*
D32*
X143055044Y-99223828D02*
X143881044Y-98397828D01*
D31*
X144103044Y-103122828D02*
X149979044Y-103122828D01*
%TO.N,Net-(IC2-NRST)*%
X150004044Y-103797828D02*
X149979044Y-103772828D01*
X147560000Y-107350000D02*
X147560000Y-105077372D01*
X147560000Y-105077372D02*
X148864544Y-103772828D01*
X152481044Y-103797828D02*
X150004044Y-103797828D01*
X148864544Y-103772828D02*
X149979044Y-103772828D01*
D30*
%TO.N,/D+*%
X134978545Y-103122828D02*
X136891044Y-103122828D01*
X135079992Y-104223828D02*
X135776143Y-104223828D01*
X136891044Y-103122828D02*
X137297846Y-103122828D01*
X135776143Y-104223828D02*
X135790011Y-104209960D01*
X142996793Y-104422828D02*
X144103044Y-104422828D01*
X135003992Y-104147828D02*
X135079992Y-104223828D01*
X134091044Y-103147828D02*
X134953545Y-103147828D01*
X134953545Y-103147828D02*
X134978545Y-103122828D01*
X137297846Y-103122828D02*
X138497846Y-104322828D01*
X142896793Y-104322828D02*
X142996793Y-104422828D01*
X138497846Y-104322828D02*
X142896793Y-104322828D01*
X134091044Y-104147828D02*
X135003992Y-104147828D01*
%TO.N,/PWM1*%
X146691366Y-99846093D02*
X147488309Y-99846093D01*
X150553986Y-93751000D02*
X151481523Y-93751000D01*
X150018329Y-94286657D02*
X150553986Y-93751000D01*
X144103044Y-100522828D02*
X146014631Y-100522828D01*
X147488309Y-99846093D02*
X147540044Y-99897828D01*
X146014631Y-100522828D02*
X146691366Y-99846093D01*
D31*
%TO.N,/SWCLK*%
X143188486Y-105722828D02*
X144103044Y-105722828D01*
X141570000Y-107341314D02*
X143188486Y-105722828D01*
X141570000Y-112550000D02*
X141570000Y-107341314D01*
D30*
%TO.N,/PA2*%
X148591044Y-101172828D02*
X149979044Y-101172828D01*
X147291044Y-102472828D02*
X148591044Y-101172828D01*
%TO.N,/PA5*%
X136776000Y-109724000D02*
X136776000Y-105789226D01*
X142525172Y-99874828D02*
X144101044Y-99874828D01*
X142100000Y-100300000D02*
X142525172Y-99874828D01*
X144101044Y-99874828D02*
X144103044Y-99872828D01*
X136776000Y-105789226D02*
X137365226Y-105200000D01*
X137365226Y-105200000D02*
X139500000Y-105200000D01*
X133950000Y-112550000D02*
X136776000Y-109724000D01*
%TO.N,/I2C_SCL*%
X156220740Y-110470740D02*
X157650000Y-111900000D01*
X152114308Y-105072828D02*
X156220740Y-109179260D01*
X156220740Y-109179260D02*
X156220740Y-110470740D01*
X149979044Y-105072828D02*
X152114308Y-105072828D01*
%TO.N,/PA1*%
X148139572Y-102472828D02*
X148789572Y-101822828D01*
X148789572Y-101822828D02*
X149979044Y-101822828D01*
%TO.N,/PWM2*%
X146214574Y-101172828D02*
X144103044Y-101172828D01*
X146940309Y-100447093D02*
X146214574Y-101172828D01*
X150000000Y-93250000D02*
X151691044Y-93250000D01*
X149500000Y-93750000D02*
X150000000Y-93250000D01*
D31*
%TO.N,/SWDIO*%
X143012544Y-105048828D02*
X144000000Y-105048828D01*
X139030000Y-109031372D02*
X143012544Y-105048828D01*
X139030000Y-112550000D02*
X139030000Y-109031372D01*
D30*
%TO.N,/I2C_SDA*%
X152246828Y-104496828D02*
X150053044Y-104496828D01*
X157650000Y-109900000D02*
X152246828Y-104496828D01*
X150053044Y-104496828D02*
X149979044Y-104422828D01*
%TO.N,/D-*%
X134953545Y-102647828D02*
X134978545Y-102672828D01*
X134091044Y-102647828D02*
X134953545Y-102647828D01*
X142896793Y-103872828D02*
X142996793Y-103772828D01*
X137484242Y-102672828D02*
X138684242Y-103872828D01*
X135283224Y-103647828D02*
X135308224Y-103672828D01*
X138684242Y-103872828D02*
X142896793Y-103872828D01*
X134091044Y-103647828D02*
X135283224Y-103647828D01*
X134978545Y-102672828D02*
X137484242Y-102672828D01*
X142996793Y-103772828D02*
X144103044Y-103772828D01*
D31*
%TO.N,/PA0*%
X149979044Y-102472828D02*
X151216044Y-102472828D01*
X151216044Y-102472828D02*
X151591044Y-102847828D01*
D30*
%TO.N,/PB1*%
X144028044Y-101897828D02*
X144103044Y-101822828D01*
X142891044Y-101897828D02*
X144028044Y-101897828D01*
%TO.N,/ADC*%
X154822828Y-99872828D02*
X157650000Y-102700000D01*
X149979044Y-99872828D02*
X154822828Y-99872828D01*
%TO.N,/PA3*%
X146691044Y-102047828D02*
X148216044Y-100522828D01*
X148216044Y-100522828D02*
X149979044Y-100522828D01*
%TO.N,Net-(J1-CC1)*%
X132190044Y-101667482D02*
X132190044Y-97534956D01*
X132670390Y-102147828D02*
X132190044Y-101667482D01*
X132190044Y-97534956D02*
X132225000Y-97500000D01*
X134091044Y-102147828D02*
X132670390Y-102147828D01*
%TO.N,Net-(J1-CC2)*%
X136025000Y-106150000D02*
X136015216Y-106150000D01*
X136015216Y-106150000D02*
X135013044Y-105147828D01*
X135013044Y-105147828D02*
X134091044Y-105147828D01*
D32*
%TO.N,/VREF*%
X148241044Y-97927828D02*
X149163216Y-98850000D01*
X149163216Y-98850000D02*
X155800000Y-98850000D01*
X146341044Y-97927828D02*
X148241044Y-97927828D01*
X145222172Y-97927828D02*
X146341044Y-97927828D01*
X144901044Y-98397828D02*
X144901044Y-98248956D01*
X155800000Y-98850000D02*
X157650000Y-100700000D01*
X144901044Y-98248956D02*
X145222172Y-97927828D01*
D30*
%TO.N,/OUT1*%
X153661044Y-94250000D02*
X154351470Y-94250000D01*
X154351470Y-94250000D02*
X155700735Y-95599265D01*
%TO.N,/OUT2*%
X154700000Y-93750000D02*
X157650000Y-96700000D01*
X153661044Y-93750000D02*
X154700000Y-93750000D01*
%TD*%
M02*
