%TF.GenerationSoftware,KiCad,Pcbnew,9.0.5*%
%TF.CreationDate,2025-12-04T20:43:33+00:00*%
%TF.ProjectId,smart_servo,736d6172-745f-4736-9572-766f2e6b6963,rev?*%
%TF.SameCoordinates,Original*%
%TF.FileFunction,Legend,Top*%
%TF.FilePolarity,Positive*%
%FSLAX46Y46*%
G04 Gerber Fmt 4.6, Leading zero omitted, Abs format (unit mm)*
G04 Created by KiCad (PCBNEW 9.0.5) date 2025-12-04 20:43:33*
%MOMM*%
%LPD*%
G01*
G04 APERTURE LIST*
%ADD10C,0.150000*%
%ADD11C,0.120000*%
%ADD12C,0.127000*%
%ADD13C,0.200000*%
G04 APERTURE END LIST*
D10*
X131589160Y-93024160D02*
X132065350Y-93024160D01*
X131493922Y-93309875D02*
X131827255Y-92309875D01*
X131827255Y-92309875D02*
X132160588Y-93309875D01*
X132493922Y-93309875D02*
X132493922Y-92643208D01*
X132493922Y-92833684D02*
X132541541Y-92738446D01*
X132541541Y-92738446D02*
X132589160Y-92690827D01*
X132589160Y-92690827D02*
X132684398Y-92643208D01*
X132684398Y-92643208D02*
X132779636Y-92643208D01*
X133541541Y-93262256D02*
X133446303Y-93309875D01*
X133446303Y-93309875D02*
X133255827Y-93309875D01*
X133255827Y-93309875D02*
X133160589Y-93262256D01*
X133160589Y-93262256D02*
X133112970Y-93214636D01*
X133112970Y-93214636D02*
X133065351Y-93119398D01*
X133065351Y-93119398D02*
X133065351Y-92833684D01*
X133065351Y-92833684D02*
X133112970Y-92738446D01*
X133112970Y-92738446D02*
X133160589Y-92690827D01*
X133160589Y-92690827D02*
X133255827Y-92643208D01*
X133255827Y-92643208D02*
X133446303Y-92643208D01*
X133446303Y-92643208D02*
X133541541Y-92690827D01*
X133970113Y-93309875D02*
X133970113Y-92309875D01*
X134398684Y-93309875D02*
X134398684Y-92786065D01*
X134398684Y-92786065D02*
X134351065Y-92690827D01*
X134351065Y-92690827D02*
X134255827Y-92643208D01*
X134255827Y-92643208D02*
X134112970Y-92643208D01*
X134112970Y-92643208D02*
X134017732Y-92690827D01*
X134017732Y-92690827D02*
X133970113Y-92738446D01*
X134874875Y-93309875D02*
X134874875Y-92643208D01*
X134874875Y-92309875D02*
X134827256Y-92357494D01*
X134827256Y-92357494D02*
X134874875Y-92405113D01*
X134874875Y-92405113D02*
X134922494Y-92357494D01*
X134922494Y-92357494D02*
X134874875Y-92309875D01*
X134874875Y-92309875D02*
X134874875Y-92405113D01*
X135732017Y-93262256D02*
X135636779Y-93309875D01*
X135636779Y-93309875D02*
X135446303Y-93309875D01*
X135446303Y-93309875D02*
X135351065Y-93262256D01*
X135351065Y-93262256D02*
X135303446Y-93167017D01*
X135303446Y-93167017D02*
X135303446Y-92786065D01*
X135303446Y-92786065D02*
X135351065Y-92690827D01*
X135351065Y-92690827D02*
X135446303Y-92643208D01*
X135446303Y-92643208D02*
X135636779Y-92643208D01*
X135636779Y-92643208D02*
X135732017Y-92690827D01*
X135732017Y-92690827D02*
X135779636Y-92786065D01*
X135779636Y-92786065D02*
X135779636Y-92881303D01*
X135779636Y-92881303D02*
X135303446Y-92976541D01*
X137493922Y-93309875D02*
X136922494Y-93309875D01*
X137208208Y-93309875D02*
X137208208Y-92309875D01*
X137208208Y-92309875D02*
X137112970Y-92452732D01*
X137112970Y-92452732D02*
X137017732Y-92547970D01*
X137017732Y-92547970D02*
X136922494Y-92595589D01*
X138446303Y-93309875D02*
X137874875Y-93309875D01*
X138160589Y-93309875D02*
X138160589Y-92309875D01*
X138160589Y-92309875D02*
X138065351Y-92452732D01*
X138065351Y-92452732D02*
X137970113Y-92547970D01*
X137970113Y-92547970D02*
X137874875Y-92595589D01*
X138779637Y-92309875D02*
X139398684Y-92309875D01*
X139398684Y-92309875D02*
X139065351Y-92690827D01*
X139065351Y-92690827D02*
X139208208Y-92690827D01*
X139208208Y-92690827D02*
X139303446Y-92738446D01*
X139303446Y-92738446D02*
X139351065Y-92786065D01*
X139351065Y-92786065D02*
X139398684Y-92881303D01*
X139398684Y-92881303D02*
X139398684Y-93119398D01*
X139398684Y-93119398D02*
X139351065Y-93214636D01*
X139351065Y-93214636D02*
X139303446Y-93262256D01*
X139303446Y-93262256D02*
X139208208Y-93309875D01*
X139208208Y-93309875D02*
X138922494Y-93309875D01*
X138922494Y-93309875D02*
X138827256Y-93262256D01*
X138827256Y-93262256D02*
X138779637Y-93214636D01*
X139874875Y-93309875D02*
X140065351Y-93309875D01*
X140065351Y-93309875D02*
X140160589Y-93262256D01*
X140160589Y-93262256D02*
X140208208Y-93214636D01*
X140208208Y-93214636D02*
X140303446Y-93071779D01*
X140303446Y-93071779D02*
X140351065Y-92881303D01*
X140351065Y-92881303D02*
X140351065Y-92500351D01*
X140351065Y-92500351D02*
X140303446Y-92405113D01*
X140303446Y-92405113D02*
X140255827Y-92357494D01*
X140255827Y-92357494D02*
X140160589Y-92309875D01*
X140160589Y-92309875D02*
X139970113Y-92309875D01*
X139970113Y-92309875D02*
X139874875Y-92357494D01*
X139874875Y-92357494D02*
X139827256Y-92405113D01*
X139827256Y-92405113D02*
X139779637Y-92500351D01*
X139779637Y-92500351D02*
X139779637Y-92738446D01*
X139779637Y-92738446D02*
X139827256Y-92833684D01*
X139827256Y-92833684D02*
X139874875Y-92881303D01*
X139874875Y-92881303D02*
X139970113Y-92928922D01*
X139970113Y-92928922D02*
X140160589Y-92928922D01*
X140160589Y-92928922D02*
X140255827Y-92881303D01*
X140255827Y-92881303D02*
X140303446Y-92833684D01*
X140303446Y-92833684D02*
X140351065Y-92738446D01*
X141208208Y-92643208D02*
X141208208Y-93309875D01*
X140970113Y-92262256D02*
X140732018Y-92976541D01*
X140732018Y-92976541D02*
X141351065Y-92976541D01*
X141636780Y-92309875D02*
X142255827Y-92309875D01*
X142255827Y-92309875D02*
X141922494Y-92690827D01*
X141922494Y-92690827D02*
X142065351Y-92690827D01*
X142065351Y-92690827D02*
X142160589Y-92738446D01*
X142160589Y-92738446D02*
X142208208Y-92786065D01*
X142208208Y-92786065D02*
X142255827Y-92881303D01*
X142255827Y-92881303D02*
X142255827Y-93119398D01*
X142255827Y-93119398D02*
X142208208Y-93214636D01*
X142208208Y-93214636D02*
X142160589Y-93262256D01*
X142160589Y-93262256D02*
X142065351Y-93309875D01*
X142065351Y-93309875D02*
X141779637Y-93309875D01*
X141779637Y-93309875D02*
X141684399Y-93262256D01*
X141684399Y-93262256D02*
X141636780Y-93214636D01*
X142589161Y-92309875D02*
X143255827Y-92309875D01*
X143255827Y-92309875D02*
X142827256Y-93309875D01*
X144112970Y-92309875D02*
X143636780Y-92309875D01*
X143636780Y-92309875D02*
X143589161Y-92786065D01*
X143589161Y-92786065D02*
X143636780Y-92738446D01*
X143636780Y-92738446D02*
X143732018Y-92690827D01*
X143732018Y-92690827D02*
X143970113Y-92690827D01*
X143970113Y-92690827D02*
X144065351Y-92738446D01*
X144065351Y-92738446D02*
X144112970Y-92786065D01*
X144112970Y-92786065D02*
X144160589Y-92881303D01*
X144160589Y-92881303D02*
X144160589Y-93119398D01*
X144160589Y-93119398D02*
X144112970Y-93214636D01*
X144112970Y-93214636D02*
X144065351Y-93262256D01*
X144065351Y-93262256D02*
X143970113Y-93309875D01*
X143970113Y-93309875D02*
X143732018Y-93309875D01*
X143732018Y-93309875D02*
X143636780Y-93262256D01*
X143636780Y-93262256D02*
X143589161Y-93214636D01*
X131589160Y-94872200D02*
X131732017Y-94919819D01*
X131732017Y-94919819D02*
X131970112Y-94919819D01*
X131970112Y-94919819D02*
X132065350Y-94872200D01*
X132065350Y-94872200D02*
X132112969Y-94824580D01*
X132112969Y-94824580D02*
X132160588Y-94729342D01*
X132160588Y-94729342D02*
X132160588Y-94634104D01*
X132160588Y-94634104D02*
X132112969Y-94538866D01*
X132112969Y-94538866D02*
X132065350Y-94491247D01*
X132065350Y-94491247D02*
X131970112Y-94443628D01*
X131970112Y-94443628D02*
X131779636Y-94396009D01*
X131779636Y-94396009D02*
X131684398Y-94348390D01*
X131684398Y-94348390D02*
X131636779Y-94300771D01*
X131636779Y-94300771D02*
X131589160Y-94205533D01*
X131589160Y-94205533D02*
X131589160Y-94110295D01*
X131589160Y-94110295D02*
X131636779Y-94015057D01*
X131636779Y-94015057D02*
X131684398Y-93967438D01*
X131684398Y-93967438D02*
X131779636Y-93919819D01*
X131779636Y-93919819D02*
X132017731Y-93919819D01*
X132017731Y-93919819D02*
X132160588Y-93967438D01*
X132970112Y-94872200D02*
X132874874Y-94919819D01*
X132874874Y-94919819D02*
X132684398Y-94919819D01*
X132684398Y-94919819D02*
X132589160Y-94872200D01*
X132589160Y-94872200D02*
X132541541Y-94776961D01*
X132541541Y-94776961D02*
X132541541Y-94396009D01*
X132541541Y-94396009D02*
X132589160Y-94300771D01*
X132589160Y-94300771D02*
X132684398Y-94253152D01*
X132684398Y-94253152D02*
X132874874Y-94253152D01*
X132874874Y-94253152D02*
X132970112Y-94300771D01*
X132970112Y-94300771D02*
X133017731Y-94396009D01*
X133017731Y-94396009D02*
X133017731Y-94491247D01*
X133017731Y-94491247D02*
X132541541Y-94586485D01*
X133446303Y-94919819D02*
X133446303Y-94253152D01*
X133446303Y-94443628D02*
X133493922Y-94348390D01*
X133493922Y-94348390D02*
X133541541Y-94300771D01*
X133541541Y-94300771D02*
X133636779Y-94253152D01*
X133636779Y-94253152D02*
X133732017Y-94253152D01*
X133970113Y-94253152D02*
X134208208Y-94919819D01*
X134208208Y-94919819D02*
X134446303Y-94253152D01*
X134970113Y-94919819D02*
X134874875Y-94872200D01*
X134874875Y-94872200D02*
X134827256Y-94824580D01*
X134827256Y-94824580D02*
X134779637Y-94729342D01*
X134779637Y-94729342D02*
X134779637Y-94443628D01*
X134779637Y-94443628D02*
X134827256Y-94348390D01*
X134827256Y-94348390D02*
X134874875Y-94300771D01*
X134874875Y-94300771D02*
X134970113Y-94253152D01*
X134970113Y-94253152D02*
X135112970Y-94253152D01*
X135112970Y-94253152D02*
X135208208Y-94300771D01*
X135208208Y-94300771D02*
X135255827Y-94348390D01*
X135255827Y-94348390D02*
X135303446Y-94443628D01*
X135303446Y-94443628D02*
X135303446Y-94729342D01*
X135303446Y-94729342D02*
X135255827Y-94824580D01*
X135255827Y-94824580D02*
X135208208Y-94872200D01*
X135208208Y-94872200D02*
X135112970Y-94919819D01*
X135112970Y-94919819D02*
X134970113Y-94919819D01*
X136493923Y-94919819D02*
X136493923Y-93919819D01*
X136493923Y-93919819D02*
X136732018Y-93919819D01*
X136732018Y-93919819D02*
X136874875Y-93967438D01*
X136874875Y-93967438D02*
X136970113Y-94062676D01*
X136970113Y-94062676D02*
X137017732Y-94157914D01*
X137017732Y-94157914D02*
X137065351Y-94348390D01*
X137065351Y-94348390D02*
X137065351Y-94491247D01*
X137065351Y-94491247D02*
X137017732Y-94681723D01*
X137017732Y-94681723D02*
X136970113Y-94776961D01*
X136970113Y-94776961D02*
X136874875Y-94872200D01*
X136874875Y-94872200D02*
X136732018Y-94919819D01*
X136732018Y-94919819D02*
X136493923Y-94919819D01*
X137493923Y-94919819D02*
X137493923Y-94253152D01*
X137493923Y-94443628D02*
X137541542Y-94348390D01*
X137541542Y-94348390D02*
X137589161Y-94300771D01*
X137589161Y-94300771D02*
X137684399Y-94253152D01*
X137684399Y-94253152D02*
X137779637Y-94253152D01*
X138112971Y-94919819D02*
X138112971Y-94253152D01*
X138112971Y-93919819D02*
X138065352Y-93967438D01*
X138065352Y-93967438D02*
X138112971Y-94015057D01*
X138112971Y-94015057D02*
X138160590Y-93967438D01*
X138160590Y-93967438D02*
X138112971Y-93919819D01*
X138112971Y-93919819D02*
X138112971Y-94015057D01*
X138493923Y-94253152D02*
X138732018Y-94919819D01*
X138732018Y-94919819D02*
X138970113Y-94253152D01*
X139732018Y-94872200D02*
X139636780Y-94919819D01*
X139636780Y-94919819D02*
X139446304Y-94919819D01*
X139446304Y-94919819D02*
X139351066Y-94872200D01*
X139351066Y-94872200D02*
X139303447Y-94776961D01*
X139303447Y-94776961D02*
X139303447Y-94396009D01*
X139303447Y-94396009D02*
X139351066Y-94300771D01*
X139351066Y-94300771D02*
X139446304Y-94253152D01*
X139446304Y-94253152D02*
X139636780Y-94253152D01*
X139636780Y-94253152D02*
X139732018Y-94300771D01*
X139732018Y-94300771D02*
X139779637Y-94396009D01*
X139779637Y-94396009D02*
X139779637Y-94491247D01*
X139779637Y-94491247D02*
X139303447Y-94586485D01*
X140208209Y-94919819D02*
X140208209Y-94253152D01*
X140208209Y-94443628D02*
X140255828Y-94348390D01*
X140255828Y-94348390D02*
X140303447Y-94300771D01*
X140303447Y-94300771D02*
X140398685Y-94253152D01*
X140398685Y-94253152D02*
X140493923Y-94253152D01*
X141493924Y-94253152D02*
X141732019Y-94919819D01*
X141732019Y-94919819D02*
X141970114Y-94253152D01*
X142874876Y-94919819D02*
X142303448Y-94919819D01*
X142589162Y-94919819D02*
X142589162Y-93919819D01*
X142589162Y-93919819D02*
X142493924Y-94062676D01*
X142493924Y-94062676D02*
X142398686Y-94157914D01*
X142398686Y-94157914D02*
X142303448Y-94205533D01*
X136883333Y-100109580D02*
X136835714Y-100157200D01*
X136835714Y-100157200D02*
X136692857Y-100204819D01*
X136692857Y-100204819D02*
X136597619Y-100204819D01*
X136597619Y-100204819D02*
X136454762Y-100157200D01*
X136454762Y-100157200D02*
X136359524Y-100061961D01*
X136359524Y-100061961D02*
X136311905Y-99966723D01*
X136311905Y-99966723D02*
X136264286Y-99776247D01*
X136264286Y-99776247D02*
X136264286Y-99633390D01*
X136264286Y-99633390D02*
X136311905Y-99442914D01*
X136311905Y-99442914D02*
X136359524Y-99347676D01*
X136359524Y-99347676D02*
X136454762Y-99252438D01*
X136454762Y-99252438D02*
X136597619Y-99204819D01*
X136597619Y-99204819D02*
X136692857Y-99204819D01*
X136692857Y-99204819D02*
X136835714Y-99252438D01*
X136835714Y-99252438D02*
X136883333Y-99300057D01*
X137835714Y-100204819D02*
X137264286Y-100204819D01*
X137550000Y-100204819D02*
X137550000Y-99204819D01*
X137550000Y-99204819D02*
X137454762Y-99347676D01*
X137454762Y-99347676D02*
X137359524Y-99442914D01*
X137359524Y-99442914D02*
X137264286Y-99490533D01*
X154654819Y-93783333D02*
X155369104Y-93783333D01*
X155369104Y-93783333D02*
X155511961Y-93830952D01*
X155511961Y-93830952D02*
X155607200Y-93926190D01*
X155607200Y-93926190D02*
X155654819Y-94069047D01*
X155654819Y-94069047D02*
X155654819Y-94164285D01*
X154654819Y-93402380D02*
X154654819Y-92783333D01*
X154654819Y-92783333D02*
X155035771Y-93116666D01*
X155035771Y-93116666D02*
X155035771Y-92973809D01*
X155035771Y-92973809D02*
X155083390Y-92878571D01*
X155083390Y-92878571D02*
X155131009Y-92830952D01*
X155131009Y-92830952D02*
X155226247Y-92783333D01*
X155226247Y-92783333D02*
X155464342Y-92783333D01*
X155464342Y-92783333D02*
X155559580Y-92830952D01*
X155559580Y-92830952D02*
X155607200Y-92878571D01*
X155607200Y-92878571D02*
X155654819Y-92973809D01*
X155654819Y-92973809D02*
X155654819Y-93259523D01*
X155654819Y-93259523D02*
X155607200Y-93354761D01*
X155607200Y-93354761D02*
X155559580Y-93402380D01*
X130433333Y-98004819D02*
X130100000Y-97528628D01*
X129861905Y-98004819D02*
X129861905Y-97004819D01*
X129861905Y-97004819D02*
X130242857Y-97004819D01*
X130242857Y-97004819D02*
X130338095Y-97052438D01*
X130338095Y-97052438D02*
X130385714Y-97100057D01*
X130385714Y-97100057D02*
X130433333Y-97195295D01*
X130433333Y-97195295D02*
X130433333Y-97338152D01*
X130433333Y-97338152D02*
X130385714Y-97433390D01*
X130385714Y-97433390D02*
X130338095Y-97481009D01*
X130338095Y-97481009D02*
X130242857Y-97528628D01*
X130242857Y-97528628D02*
X129861905Y-97528628D01*
X131385714Y-98004819D02*
X130814286Y-98004819D01*
X131100000Y-98004819D02*
X131100000Y-97004819D01*
X131100000Y-97004819D02*
X131004762Y-97147676D01*
X131004762Y-97147676D02*
X130909524Y-97242914D01*
X130909524Y-97242914D02*
X130814286Y-97290533D01*
X144183333Y-97804819D02*
X143850000Y-97328628D01*
X143611905Y-97804819D02*
X143611905Y-96804819D01*
X143611905Y-96804819D02*
X143992857Y-96804819D01*
X143992857Y-96804819D02*
X144088095Y-96852438D01*
X144088095Y-96852438D02*
X144135714Y-96900057D01*
X144135714Y-96900057D02*
X144183333Y-96995295D01*
X144183333Y-96995295D02*
X144183333Y-97138152D01*
X144183333Y-97138152D02*
X144135714Y-97233390D01*
X144135714Y-97233390D02*
X144088095Y-97281009D01*
X144088095Y-97281009D02*
X143992857Y-97328628D01*
X143992857Y-97328628D02*
X143611905Y-97328628D01*
X144516667Y-96804819D02*
X145135714Y-96804819D01*
X145135714Y-96804819D02*
X144802381Y-97185771D01*
X144802381Y-97185771D02*
X144945238Y-97185771D01*
X144945238Y-97185771D02*
X145040476Y-97233390D01*
X145040476Y-97233390D02*
X145088095Y-97281009D01*
X145088095Y-97281009D02*
X145135714Y-97376247D01*
X145135714Y-97376247D02*
X145135714Y-97614342D01*
X145135714Y-97614342D02*
X145088095Y-97709580D01*
X145088095Y-97709580D02*
X145040476Y-97757200D01*
X145040476Y-97757200D02*
X144945238Y-97804819D01*
X144945238Y-97804819D02*
X144659524Y-97804819D01*
X144659524Y-97804819D02*
X144564286Y-97757200D01*
X144564286Y-97757200D02*
X144516667Y-97709580D01*
X151542289Y-97911752D02*
X151494670Y-97959372D01*
X151494670Y-97959372D02*
X151351813Y-98006991D01*
X151351813Y-98006991D02*
X151256575Y-98006991D01*
X151256575Y-98006991D02*
X151113718Y-97959372D01*
X151113718Y-97959372D02*
X151018480Y-97864133D01*
X151018480Y-97864133D02*
X150970861Y-97768895D01*
X150970861Y-97768895D02*
X150923242Y-97578419D01*
X150923242Y-97578419D02*
X150923242Y-97435562D01*
X150923242Y-97435562D02*
X150970861Y-97245086D01*
X150970861Y-97245086D02*
X151018480Y-97149848D01*
X151018480Y-97149848D02*
X151113718Y-97054610D01*
X151113718Y-97054610D02*
X151256575Y-97006991D01*
X151256575Y-97006991D02*
X151351813Y-97006991D01*
X151351813Y-97006991D02*
X151494670Y-97054610D01*
X151494670Y-97054610D02*
X151542289Y-97102229D01*
X152447051Y-97006991D02*
X151970861Y-97006991D01*
X151970861Y-97006991D02*
X151923242Y-97483181D01*
X151923242Y-97483181D02*
X151970861Y-97435562D01*
X151970861Y-97435562D02*
X152066099Y-97387943D01*
X152066099Y-97387943D02*
X152304194Y-97387943D01*
X152304194Y-97387943D02*
X152399432Y-97435562D01*
X152399432Y-97435562D02*
X152447051Y-97483181D01*
X152447051Y-97483181D02*
X152494670Y-97578419D01*
X152494670Y-97578419D02*
X152494670Y-97816514D01*
X152494670Y-97816514D02*
X152447051Y-97911752D01*
X152447051Y-97911752D02*
X152399432Y-97959372D01*
X152399432Y-97959372D02*
X152304194Y-98006991D01*
X152304194Y-98006991D02*
X152066099Y-98006991D01*
X152066099Y-98006991D02*
X151970861Y-97959372D01*
X151970861Y-97959372D02*
X151923242Y-97911752D01*
X146579139Y-93252647D02*
X146579139Y-94062170D01*
X146579139Y-94062170D02*
X146626758Y-94157408D01*
X146626758Y-94157408D02*
X146674377Y-94205028D01*
X146674377Y-94205028D02*
X146769615Y-94252647D01*
X146769615Y-94252647D02*
X146960091Y-94252647D01*
X146960091Y-94252647D02*
X147055329Y-94205028D01*
X147055329Y-94205028D02*
X147102948Y-94157408D01*
X147102948Y-94157408D02*
X147150567Y-94062170D01*
X147150567Y-94062170D02*
X147150567Y-93252647D01*
X148150567Y-94252647D02*
X147579139Y-94252647D01*
X147864853Y-94252647D02*
X147864853Y-93252647D01*
X147864853Y-93252647D02*
X147769615Y-93395504D01*
X147769615Y-93395504D02*
X147674377Y-93490742D01*
X147674377Y-93490742D02*
X147579139Y-93538361D01*
X141083333Y-96809580D02*
X141035714Y-96857200D01*
X141035714Y-96857200D02*
X140892857Y-96904819D01*
X140892857Y-96904819D02*
X140797619Y-96904819D01*
X140797619Y-96904819D02*
X140654762Y-96857200D01*
X140654762Y-96857200D02*
X140559524Y-96761961D01*
X140559524Y-96761961D02*
X140511905Y-96666723D01*
X140511905Y-96666723D02*
X140464286Y-96476247D01*
X140464286Y-96476247D02*
X140464286Y-96333390D01*
X140464286Y-96333390D02*
X140511905Y-96142914D01*
X140511905Y-96142914D02*
X140559524Y-96047676D01*
X140559524Y-96047676D02*
X140654762Y-95952438D01*
X140654762Y-95952438D02*
X140797619Y-95904819D01*
X140797619Y-95904819D02*
X140892857Y-95904819D01*
X140892857Y-95904819D02*
X141035714Y-95952438D01*
X141035714Y-95952438D02*
X141083333Y-96000057D01*
X141464286Y-96000057D02*
X141511905Y-95952438D01*
X141511905Y-95952438D02*
X141607143Y-95904819D01*
X141607143Y-95904819D02*
X141845238Y-95904819D01*
X141845238Y-95904819D02*
X141940476Y-95952438D01*
X141940476Y-95952438D02*
X141988095Y-96000057D01*
X141988095Y-96000057D02*
X142035714Y-96095295D01*
X142035714Y-96095295D02*
X142035714Y-96190533D01*
X142035714Y-96190533D02*
X141988095Y-96333390D01*
X141988095Y-96333390D02*
X141416667Y-96904819D01*
X141416667Y-96904819D02*
X142035714Y-96904819D01*
X152794377Y-105457408D02*
X152746758Y-105505028D01*
X152746758Y-105505028D02*
X152603901Y-105552647D01*
X152603901Y-105552647D02*
X152508663Y-105552647D01*
X152508663Y-105552647D02*
X152365806Y-105505028D01*
X152365806Y-105505028D02*
X152270568Y-105409789D01*
X152270568Y-105409789D02*
X152222949Y-105314551D01*
X152222949Y-105314551D02*
X152175330Y-105124075D01*
X152175330Y-105124075D02*
X152175330Y-104981218D01*
X152175330Y-104981218D02*
X152222949Y-104790742D01*
X152222949Y-104790742D02*
X152270568Y-104695504D01*
X152270568Y-104695504D02*
X152365806Y-104600266D01*
X152365806Y-104600266D02*
X152508663Y-104552647D01*
X152508663Y-104552647D02*
X152603901Y-104552647D01*
X152603901Y-104552647D02*
X152746758Y-104600266D01*
X152746758Y-104600266D02*
X152794377Y-104647885D01*
X153127711Y-104552647D02*
X153746758Y-104552647D01*
X153746758Y-104552647D02*
X153413425Y-104933599D01*
X153413425Y-104933599D02*
X153556282Y-104933599D01*
X153556282Y-104933599D02*
X153651520Y-104981218D01*
X153651520Y-104981218D02*
X153699139Y-105028837D01*
X153699139Y-105028837D02*
X153746758Y-105124075D01*
X153746758Y-105124075D02*
X153746758Y-105362170D01*
X153746758Y-105362170D02*
X153699139Y-105457408D01*
X153699139Y-105457408D02*
X153651520Y-105505028D01*
X153651520Y-105505028D02*
X153556282Y-105552647D01*
X153556282Y-105552647D02*
X153270568Y-105552647D01*
X153270568Y-105552647D02*
X153175330Y-105505028D01*
X153175330Y-105505028D02*
X153127711Y-105457408D01*
X154554819Y-106983333D02*
X155269104Y-106983333D01*
X155269104Y-106983333D02*
X155411961Y-107030952D01*
X155411961Y-107030952D02*
X155507200Y-107126190D01*
X155507200Y-107126190D02*
X155554819Y-107269047D01*
X155554819Y-107269047D02*
X155554819Y-107364285D01*
X154650057Y-106554761D02*
X154602438Y-106507142D01*
X154602438Y-106507142D02*
X154554819Y-106411904D01*
X154554819Y-106411904D02*
X154554819Y-106173809D01*
X154554819Y-106173809D02*
X154602438Y-106078571D01*
X154602438Y-106078571D02*
X154650057Y-106030952D01*
X154650057Y-106030952D02*
X154745295Y-105983333D01*
X154745295Y-105983333D02*
X154840533Y-105983333D01*
X154840533Y-105983333D02*
X154983390Y-106030952D01*
X154983390Y-106030952D02*
X155554819Y-106602380D01*
X155554819Y-106602380D02*
X155554819Y-105983333D01*
X153983333Y-97959580D02*
X153935714Y-98007200D01*
X153935714Y-98007200D02*
X153792857Y-98054819D01*
X153792857Y-98054819D02*
X153697619Y-98054819D01*
X153697619Y-98054819D02*
X153554762Y-98007200D01*
X153554762Y-98007200D02*
X153459524Y-97911961D01*
X153459524Y-97911961D02*
X153411905Y-97816723D01*
X153411905Y-97816723D02*
X153364286Y-97626247D01*
X153364286Y-97626247D02*
X153364286Y-97483390D01*
X153364286Y-97483390D02*
X153411905Y-97292914D01*
X153411905Y-97292914D02*
X153459524Y-97197676D01*
X153459524Y-97197676D02*
X153554762Y-97102438D01*
X153554762Y-97102438D02*
X153697619Y-97054819D01*
X153697619Y-97054819D02*
X153792857Y-97054819D01*
X153792857Y-97054819D02*
X153935714Y-97102438D01*
X153935714Y-97102438D02*
X153983333Y-97150057D01*
X154840476Y-97388152D02*
X154840476Y-98054819D01*
X154602381Y-97007200D02*
X154364286Y-97721485D01*
X154364286Y-97721485D02*
X154983333Y-97721485D01*
X149390476Y-92062295D02*
X149390476Y-92709914D01*
X149390476Y-92709914D02*
X149428571Y-92786104D01*
X149428571Y-92786104D02*
X149466666Y-92824200D01*
X149466666Y-92824200D02*
X149542857Y-92862295D01*
X149542857Y-92862295D02*
X149695238Y-92862295D01*
X149695238Y-92862295D02*
X149771428Y-92824200D01*
X149771428Y-92824200D02*
X149809523Y-92786104D01*
X149809523Y-92786104D02*
X149847619Y-92709914D01*
X149847619Y-92709914D02*
X149847619Y-92062295D01*
X150190475Y-92138485D02*
X150228571Y-92100390D01*
X150228571Y-92100390D02*
X150304761Y-92062295D01*
X150304761Y-92062295D02*
X150495237Y-92062295D01*
X150495237Y-92062295D02*
X150571428Y-92100390D01*
X150571428Y-92100390D02*
X150609523Y-92138485D01*
X150609523Y-92138485D02*
X150647618Y-92214676D01*
X150647618Y-92214676D02*
X150647618Y-92290866D01*
X150647618Y-92290866D02*
X150609523Y-92405152D01*
X150609523Y-92405152D02*
X150152380Y-92862295D01*
X150152380Y-92862295D02*
X150647618Y-92862295D01*
X148833333Y-107654819D02*
X148500000Y-107178628D01*
X148261905Y-107654819D02*
X148261905Y-106654819D01*
X148261905Y-106654819D02*
X148642857Y-106654819D01*
X148642857Y-106654819D02*
X148738095Y-106702438D01*
X148738095Y-106702438D02*
X148785714Y-106750057D01*
X148785714Y-106750057D02*
X148833333Y-106845295D01*
X148833333Y-106845295D02*
X148833333Y-106988152D01*
X148833333Y-106988152D02*
X148785714Y-107083390D01*
X148785714Y-107083390D02*
X148738095Y-107131009D01*
X148738095Y-107131009D02*
X148642857Y-107178628D01*
X148642857Y-107178628D02*
X148261905Y-107178628D01*
X149690476Y-106988152D02*
X149690476Y-107654819D01*
X149452381Y-106607200D02*
X149214286Y-107321485D01*
X149214286Y-107321485D02*
X149833333Y-107321485D01*
X138479139Y-103102647D02*
X138479139Y-103912170D01*
X138479139Y-103912170D02*
X138526758Y-104007408D01*
X138526758Y-104007408D02*
X138574377Y-104055028D01*
X138574377Y-104055028D02*
X138669615Y-104102647D01*
X138669615Y-104102647D02*
X138860091Y-104102647D01*
X138860091Y-104102647D02*
X138955329Y-104055028D01*
X138955329Y-104055028D02*
X139002948Y-104007408D01*
X139002948Y-104007408D02*
X139050567Y-103912170D01*
X139050567Y-103912170D02*
X139050567Y-103102647D01*
X139431520Y-103102647D02*
X140050567Y-103102647D01*
X140050567Y-103102647D02*
X139717234Y-103483599D01*
X139717234Y-103483599D02*
X139860091Y-103483599D01*
X139860091Y-103483599D02*
X139955329Y-103531218D01*
X139955329Y-103531218D02*
X140002948Y-103578837D01*
X140002948Y-103578837D02*
X140050567Y-103674075D01*
X140050567Y-103674075D02*
X140050567Y-103912170D01*
X140050567Y-103912170D02*
X140002948Y-104007408D01*
X140002948Y-104007408D02*
X139955329Y-104055028D01*
X139955329Y-104055028D02*
X139860091Y-104102647D01*
X139860091Y-104102647D02*
X139574377Y-104102647D01*
X139574377Y-104102647D02*
X139479139Y-104055028D01*
X139479139Y-104055028D02*
X139431520Y-104007408D01*
X136833333Y-104904819D02*
X136500000Y-104428628D01*
X136261905Y-104904819D02*
X136261905Y-103904819D01*
X136261905Y-103904819D02*
X136642857Y-103904819D01*
X136642857Y-103904819D02*
X136738095Y-103952438D01*
X136738095Y-103952438D02*
X136785714Y-104000057D01*
X136785714Y-104000057D02*
X136833333Y-104095295D01*
X136833333Y-104095295D02*
X136833333Y-104238152D01*
X136833333Y-104238152D02*
X136785714Y-104333390D01*
X136785714Y-104333390D02*
X136738095Y-104381009D01*
X136738095Y-104381009D02*
X136642857Y-104428628D01*
X136642857Y-104428628D02*
X136261905Y-104428628D01*
X137214286Y-104000057D02*
X137261905Y-103952438D01*
X137261905Y-103952438D02*
X137357143Y-103904819D01*
X137357143Y-103904819D02*
X137595238Y-103904819D01*
X137595238Y-103904819D02*
X137690476Y-103952438D01*
X137690476Y-103952438D02*
X137738095Y-104000057D01*
X137738095Y-104000057D02*
X137785714Y-104095295D01*
X137785714Y-104095295D02*
X137785714Y-104190533D01*
X137785714Y-104190533D02*
X137738095Y-104333390D01*
X137738095Y-104333390D02*
X137166667Y-104904819D01*
X137166667Y-104904819D02*
X137785714Y-104904819D01*
D11*
%TO.C,C1*%
X137302296Y-97262828D02*
X136779792Y-97262828D01*
X137302296Y-98732828D02*
X136779792Y-98732828D01*
D12*
%TO.C,J3*%
X155950000Y-92750000D02*
X160450000Y-92750000D01*
X155950000Y-104650000D02*
X155950000Y-92750000D01*
X160450000Y-92750000D02*
X160450000Y-104650000D01*
X160450000Y-104650000D02*
X155950000Y-104650000D01*
D13*
X155350000Y-102700000D02*
G75*
G02*
X155150000Y-102700000I-100000J0D01*
G01*
X155150000Y-102700000D02*
G75*
G02*
X155350000Y-102700000I100000J0D01*
G01*
D11*
%TO.C,R1*%
X133287258Y-96977500D02*
X132812742Y-96977500D01*
X133287258Y-98022500D02*
X132812742Y-98022500D01*
%TO.C,R3*%
X144237403Y-98017828D02*
X144544685Y-98017828D01*
X144237403Y-98777828D02*
X144544685Y-98777828D01*
%TO.C,C5*%
X151857836Y-95890000D02*
X151642164Y-95890000D01*
X151857836Y-96610000D02*
X151642164Y-96610000D01*
D12*
%TO.C,U1*%
X145721044Y-96012828D02*
X145721044Y-97512828D01*
X146671044Y-96012828D02*
X145721044Y-96012828D01*
X148861044Y-96012828D02*
X147911044Y-96012828D01*
X148861044Y-97512828D02*
X148861044Y-96012828D01*
D13*
X146191044Y-99262828D02*
G75*
G02*
X145991044Y-99262828I-100000J0D01*
G01*
X145991044Y-99262828D02*
G75*
G02*
X146191044Y-99262828I100000J0D01*
G01*
D11*
%TO.C,C2*%
X141502296Y-97262828D02*
X140979792Y-97262828D01*
X141502296Y-98732828D02*
X140979792Y-98732828D01*
%TO.C,J5*%
X132570000Y-113930000D02*
X132570000Y-112550000D01*
X133950000Y-113930000D02*
X132570000Y-113930000D01*
X135220000Y-111170000D02*
X142950000Y-111170000D01*
X135220000Y-113930000D02*
X135220000Y-111170000D01*
X135220000Y-113930000D02*
X142950000Y-113930000D01*
X142950000Y-113930000D02*
X142950000Y-111170000D01*
%TO.C,C3*%
X153068880Y-103437828D02*
X152853208Y-103437828D01*
X153068880Y-104157828D02*
X152853208Y-104157828D01*
D12*
%TO.C,J2*%
X155950000Y-105950000D02*
X160450000Y-105950000D01*
X155950000Y-113850000D02*
X155950000Y-105950000D01*
X160450000Y-105950000D02*
X160450000Y-113850000D01*
X160450000Y-113850000D02*
X155950000Y-113850000D01*
D13*
X155350000Y-111900000D02*
G75*
G02*
X155150000Y-111900000I-100000J0D01*
G01*
X155150000Y-111900000D02*
G75*
G02*
X155350000Y-111900000I100000J0D01*
G01*
D11*
%TO.C,C4*%
X154142164Y-95890000D02*
X154357836Y-95890000D01*
X154142164Y-96610000D02*
X154357836Y-96610000D01*
D13*
%TO.C,IC2*%
X145191044Y-99547828D02*
X148891044Y-99547828D01*
X145191044Y-106047828D02*
X145191044Y-99547828D01*
X148891044Y-99547828D02*
X148891044Y-106047828D01*
X148891044Y-106047828D02*
X145191044Y-106047828D01*
X150716044Y-106297828D02*
X149241044Y-106297828D01*
D10*
%TO.C,J1*%
X127266044Y-98777828D02*
X128096044Y-98777828D01*
X127266044Y-108017828D02*
X127266044Y-98777828D01*
X128096044Y-108017828D02*
X127266044Y-108017828D01*
X130936044Y-98777828D02*
X132296044Y-98777828D01*
X132296044Y-108017828D02*
X130936044Y-108017828D01*
D12*
%TO.C,U2*%
X153676044Y-92790000D02*
X151676044Y-92790000D01*
X153676044Y-95210000D02*
X151676044Y-95210000D01*
D13*
X154701044Y-94750000D02*
G75*
G02*
X154501044Y-94750000I-100000J0D01*
G01*
X154501044Y-94750000D02*
G75*
G02*
X154701044Y-94750000I100000J0D01*
G01*
D11*
%TO.C,J4*%
X144100000Y-111220000D02*
X144100000Y-113880000D01*
X151780000Y-111220000D02*
X144100000Y-111220000D01*
X151780000Y-111220000D02*
X151780000Y-113880000D01*
X151780000Y-113880000D02*
X144100000Y-113880000D01*
X154380000Y-112550000D02*
X154380000Y-113880000D01*
X154380000Y-113880000D02*
X153050000Y-113880000D01*
%TO.C,R4*%
X146896359Y-106970000D02*
X147203641Y-106970000D01*
X146896359Y-107730000D02*
X147203641Y-107730000D01*
D12*
%TO.C,U3*%
X138491044Y-99427828D02*
X138491044Y-100377828D01*
X138491044Y-101617828D02*
X138491044Y-102567828D01*
X138491044Y-102567828D02*
X139991044Y-102567828D01*
X139991044Y-99427828D02*
X138491044Y-99427828D01*
D13*
X141841044Y-102197828D02*
G75*
G02*
X141641044Y-102197828I-100000J0D01*
G01*
X141641044Y-102197828D02*
G75*
G02*
X141841044Y-102197828I100000J0D01*
G01*
D11*
%TO.C,R2*%
X136612742Y-105627500D02*
X137087258Y-105627500D01*
X136612742Y-106672500D02*
X137087258Y-106672500D01*
%TD*%
M02*
